<?xml version="1.0" encoding="UTF-8"?>
<!-- Generated by jsxcad -->
<!DOCTYPE svg PUBLIC "-//W3C//DTD SVG 1.1 Tiny//EN" "http://www.w3.org/Graphics/SVG/1.1/DTD/svg11-tiny.dtd">
<svg baseProfile="tiny" height="176.3383083615951mm" width="84.00000000000006mm" viewBox="-42.00000000000003 -210.95184474061367 84.00000000000006 176.3383083615951" version="1.1" stroke="black" stroke-width=".1" fill="none" xmlns="http://www.w3.org/2000/svg">
<path fill="#f5d3b6" stroke="#f5d3b6" d="M28 199.90795422380913 L28 200.7199420761772 L28 189.61774627791232 L28 178.11460609412907 L28 178.10877456348683 L28 149.81880580876359 L28 172.42414179081172 L28 172.42997332145396 L28 174.3340372690732 L28 180.52442893840168 L28 191.7609235728385 L28 198.06784498285262 L28 198.81587812855796 z"/>
<path fill="#f5d3b6" stroke="#f5d3b6" d="M31.311351978648016 153.71316756615678 L30.222179246101945 152.43223075721184 L28.004412426261084 149.82399510431395 L28 149.81880580876359 L28 178.10877456348683 L28.55438349939077 177.4567841037355 L31.311351978648013 174.21441280609366 L31.985916847561278 172.79774283723057 L33.69340917199799 169.21179697854592 L33.92182427373307 167.72563576299314 L34.04527707108202 166.92240183503554 L34.5 163.9637901861252 L34.27158489826491 162.47762897057243 L33.69340917199799 158.7157833937045 L33.01884430308472 157.29911342484144 z"/>
<path fill="#f5d3b6" stroke="#f5d3b6" d="M34.49999999999999 163.96379018612518 L34.5 106.72927241962775 L33.69340917199799 101.48126562720707 L33.69340917199799 158.71578339370453 L34.27158489826491 162.47762897057243 z"/>
<path fill="#f5d3b6" stroke="#f5d3b6" d="M33.693409171998 158.7157833937045 L33.693409171998 101.48126562720705 L31.311351978648023 96.47864979965934 L31.31135197864802 153.71316756615678 L33.01884430308472 157.29911342484144 z"/>
<path fill="#f5d3b6" stroke="#f5d3b6" d="M28.000000000000004 172.42414179081172 L28.000000000000007 149.81880580876359 L28.0044124262611 149.82399510431395 L30.222179246101945 152.43223075721184 L31.311351978648013 153.71316756615678 L31.311351978648023 96.47864979965932 L27.465210766844702 91.95534169307255 L27.465210766844706 171.80102697226036 L27.999999999999996 172.42997332145393 z"/>
<path fill="#f5d3b6" stroke="#f5d3b6" d="M22.334826824973067 167.96853144640266 L27.465210766844702 171.80102697226036 L27.46521076684471 91.95534169307255 L22.33482682497308 88.12284616721485 z"/>
<path fill="#f5d3b6" stroke="#f5d3b6" d="M16.16009120414275 165.0060517325502 L22.334826824973046 167.96853144640255 L22.334826824973046 88.1228461672148 L16.16009120414275 85.16036645336244 z"/>
<path fill="#f5d3b6" stroke="#f5d3b6" d="M9.229727679258108 163.05211008956326 L16.16009120414275 165.00605173255025 L16.16009120414275 85.16036645336247 L9.229727679258108 83.20642481037547 z"/>
<path fill="#f5d3b6" stroke="#f5d3b6" d="M1.8677923461968962 162.19807065701752 L9.229727679258108 163.05211008956326 L9.229727679258108 83.20642481037544 L1.8677923461968962 82.3523853778297 z"/>
<path fill="#f5d3b6" stroke="#f5d3b6" d="M-5.58147888107039 162.4838673695822 L1.8677923461968962 162.19807065701752 L1.8677923461968962 82.35238537782972 L-5.58147888107039 82.63818209039442 z"/>
<path fill="#f5d3b6" stroke="#f5d3b6" d="M-12.76976635922705 163.89613669061808 L-5.58147888107039 162.4838673695822 L-5.58147888107039 82.63818209039444 L-12.76976635922705 84.05045141143032 z"/>
<path fill="#f5d3b6" stroke="#f5d3b6" d="M-25.046844471348027 169.786363752299 L-19.36095375500225 166.3688424762981 L-19.360953755002217 86.52315719711034 L-25.046844471348045 89.94067847311116 z"/>
<path fill="#f5d3b6" stroke="#f5d3b6" d="M-29.56157257778184 173.98890102205695 L-25.04684447134802 169.78636375229897 L-25.04684447134803 89.94067847311118 L-29.561572577781845 94.14321574286913 z"/>
<path fill="#f5d3b6" stroke="#f5d3b6" d="M-32.6940344058067 178.77994831362284 L-29.56157257778184 173.98890102205692 L-29.561572577781845 94.14321574286912 L-32.69403440580668 98.93426303443503 z"/>
<path fill="#f5d3b6" stroke="#f5d3b6" d="M-34.29775952182541 183.93548158050967 L-32.69403440580669 178.77994831362284 L-32.69403440580669 98.93426303443503 L-34.297759521825405 104.08979630132187 z"/>
<path fill="#f5d3b6" stroke="#f5d3b6" d="M-34.297759521825405 189.2144338171215 L-34.297759521825405 183.93548158050967 L-34.297759521825405 104.08979630132187 L-34.297759521825405 109.36874853793368 z"/>
<path fill="#f5d3b6" stroke="#f5d3b6" d="M-32.69403440580667 194.3699670840083 L-34.29775952182539 189.2144338171215 L-34.2977595218254 109.36874853793368 L-32.69403440580666 114.5242818048205 z"/>
<path fill="#f5d3b6" stroke="#f5d3b6" d="M-19.360953755002193 166.36884247629808 L-12.76976635922705 163.89613669061808 L-12.76976635922705 84.05045141143029 L-19.360953755002193 86.5231571971103 z"/>
<path fill="#f5d3b6" stroke="#f5d3b6" d="M-29.561572577781813 199.1610143755742 L-32.694034405806654 194.36996708400832 L-32.69403440580667 114.5242818048205 L-29.561572577781813 119.3153290963864 z"/>
<path fill="#f5d3b6" stroke="#f5d3b6" d="M-25.046844471348 203.36355164533217 L-29.561572577781803 199.16101437557418 L-29.561572577781792 119.31532909638639 L-25.046844471347995 123.51786636614436 z"/>
<path fill="#f5d3b6" stroke="#f5d3b6" d="M-5.581478881070351 210.66604802804883 L-12.769766359227017 209.25377870701297 L-12.769766359227017 129.4080934278252 L-5.581478881070351 130.82036274886107 z"/>
<path fill="#f5d3b6" stroke="#f5d3b6" d="M-19.360953755002143 206.781072921333 L-25.04684447134798 203.36355164533217 L-25.046844471347974 123.51786636614436 L-19.360953755002164 126.93538764214522 z"/>
<path fill="#f5d3b6" stroke="#f5d3b6" d="M-12.769766359227017 209.25377870701303 L-19.360953755002164 206.78107292133302 L-19.360953755002164 126.93538764214517 L-12.769766359227017 129.40809342782518 z"/>
<path fill="#f5d3b6" stroke="#f5d3b6" d="M1.867792346196939 210.95184474061352 L-5.581478881070351 210.66604802804883 L-5.581478881070351 130.82036274886104 L1.867792346196939 131.10615946142576 z"/>
<path fill="#f5d3b6" stroke="#f5d3b6" d="M9.229727679258136 210.0978053080678 L1.867792346196939 210.95184474061355 L1.867792346196939 131.10615946142576 L9.229727679258136 130.25212002888 z"/>
<path fill="#f5d3b6" stroke="#f5d3b6" d="M27.465210766844706 201.34888842537077 L22.33482682497306 205.18138395122847 L22.334826824973057 125.33569867204066 L27.4652107668447 121.50320314618298 z"/>
<path fill="#f5d3b6" stroke="#f5d3b6" d="M27.999999999999986 178.11460609412907 L27.99999999999999 189.6177462779123 L27.999999999999982 200.71994207617718 L27.465210766844695 201.34888842537077 L27.46521076684469 121.50320314618297 L31.311351978648005 116.9798950395962 L31.31135197864798 174.21441280609363 L28.55438349939076 177.4567841037355 L27.99999999999998 178.10877456348683 z"/>
<path fill="#f5d3b6" stroke="#f5d3b6" d="M16.160091204142763 208.14386366508083 L9.229727679258136 210.09780530806785 L9.229727679258136 130.25212002887997 L16.160091204142763 128.29817838589298 z"/>
<path fill="#f5d3b6" stroke="#f5d3b6" d="M22.33482682497306 205.18138395122847 L16.160091204142763 208.14386366508083 L16.160091204142763 128.298178385893 L22.33482682497306 125.33569867204065 z"/>
<path fill="#f5d3b6" stroke="#f5d3b6" d="M31.31135197864801 174.21441280609363 L31.31135197864801 116.9798950395962 L33.69340917199799 111.97727921204846 L33.69340917199799 169.2117969785459 L31.985916847561274 172.79774283723057 z"/>
<path fill="#f5d3b6" stroke="#f5d3b6" d="M34.49999999999999 163.9637901861252 L34.04527707108202 166.92240183503554 L33.92182427373307 167.72563576299314 L33.693409171997985 169.21179697854592 L33.693409171997985 111.97727921204846 L34.5 106.72927241962775 z"/>
<path fill="#f5d3b6" stroke="#f5d3b6" d="M33.69340917199799 101.48126562720705 L34.5 106.72927241962775 L33.69340917199799 111.97727921204846 L31.311351978648013 116.97989503959619 L27.465210766844702 121.50320314618297 L22.334826824973064 125.33569867204066 L16.160091204142766 128.298178385893 L9.229727679258138 130.25212002888003 L1.8677923461969395 131.10615946142576 L-5.5814788810703515 130.82036274886107 L-12.769766359227019 129.4080934278252 L-19.360953755002168 126.9353876421452 L-25.046844471348 123.51786636614436 L-29.561572577781817 119.3153290963864 L-32.694034405806676 114.5242818048205 L-34.297759521825405 109.36874853793367 L-34.297759521825405 104.08979630132185 L-32.69403440580669 98.93426303443503 L-29.56157257778183 94.14321574286913 L-25.04684447134802 89.94067847311116 L-19.360953755002196 86.52315719711034 L-12.769766359227052 84.05045141143032 L-5.581478881070391 82.63818209039445 L1.8677923461968964 82.35238537782975 L9.22972767925811 83.20642481037547 L16.160091204142752 85.16036645336249 L22.33482682497305 88.12284616721485 L27.465210766844702 91.95534169307255 L31.311351978648016 96.47864979965932 z"/>
<path fill="#f5d3b6" stroke="#f5d3b6" d="M28 191.76092357283846 L28 180.52442893840166 L28 174.33403726907318 L28 172.42997332145396 L27.465210766844702 171.80102697226036 L22.33482682497305 167.96853144640266 L16.160091204142752 165.00605173255028 L9.22972767925811 163.05211008956329 L1.8677923461968964 162.19807065701755 L-5.581478881070391 162.48386736958224 L-12.769766359227052 163.89613669061814 L-19.360953755002196 166.36884247629814 L-25.04684447134802 169.786363752299 L-29.56157257778183 173.98890102205692 L-32.69403440580669 178.77994831362284 L-34.297759521825405 183.93548158050965 L-34.297759521825405 189.21443381712146 L-32.694034405806676 194.3699670840083 L-29.561572577781817 199.1610143755742 L-25.046844471348 203.36355164533217 L-19.360953755002168 206.78107292133302 L-12.769766359227019 209.253778707013 L-5.5814788810703515 210.66604802804886 L1.8677923461969395 210.95184474061358 L9.229727679258138 210.09780530806785 L16.160091204142766 208.14386366508083 L22.334826824973064 205.18138395122847 L27.465210766844702 201.34888842537077 L28 200.7199420761772 L28 199.90795422380913 L28 198.81587812855793 L28 198.06784498285262 z"/>
<path fill="#ffd600" stroke="#ffd600" d="M16.072704159333767 75.73876537928724 L16.277193314317696 85.00407003331709 L23.333949786823286 78.48516944445547 z"/>
<path fill="#ffd600" stroke="#ffd600" d="M23.333949786823286 78.48516944445547 L16.277193314317696 85.00407003331709 L22.4966733961685 87.98801699147273 z"/>
<path fill="#ffd600" stroke="#ffd600" d="M-25.228343344328803 89.81902199523786 L-19.501250521342786 86.37673607230947 L-38.27430366972642 82.83202646366371 z"/>
<path fill="#ffd600" stroke="#ffd600" d="M-38.27430366972642 82.83202646366371 L-19.501250521342786 86.37673607230948 L-12.86230089806203 83.88611212876222 z"/>
<path fill="#ffd600" stroke="#ffd600" d="M29.69848480983499 82.18120753388665 L22.496673396168497 87.98801699147273 L27.664234033271114 91.84828422403955 z"/>
<path fill="#ffd600" stroke="#ffd600" d="M-12.86230089806203 83.88611212876224 L-5.621924380208581 82.46360897206667 L-8.193793524677385 74.04753810640526 z"/>
<path fill="#ffd600" stroke="#ffd600" d="M0 73.47648054145516 L-5.621924380208581 82.46360897206668 L1.8813270733432503 82.1757412688312 z"/>
<path fill="#ffd600" stroke="#ffd600" d="M23.333949786823286 78.48516944445547 L22.4966733961685 87.98801699147273 L29.69848480983499 82.18120753388665 z"/>
<path fill="#ffd600" stroke="#ffd600" d="M-39.79746486807249 121.88342263342716 L-34.546294011113964 109.38787517647215 L-41.999999999999986 103.1962774957699 z"/>
<path fill="#ffd600" stroke="#ffd600" d="M-38.27430366972642 123.56052852787612 L-25.228343344328774 123.63952284401772 L-29.775786871823712 119.4065324056383 z"/>
<path fill="#ffd600" stroke="#ffd600" d="M-12.862300898061994 129.5724327104933 L-19.50125052134276 127.08180876694607 L-38.27430366972642 123.5605285278761 z"/>
<path fill="#ffd600" stroke="#ffd600" d="M31.538245833565757 96.40436992560159 L33.9375643109255 101.44323659247937 L38.802940365474036 91.82300358809918 z"/>
<path fill="#ffd600" stroke="#ffd600" d="M-29.775786871823712 119.40653240563833 L-32.930947698602374 114.58076738007557 L-39.79746486807248 121.88342263342717 z"/>
<path fill="#ffd600" stroke="#ffd600" d="M34.92172371670689 119.7077120149738 L31.538245833565735 117.05417491365397 L27.6642340332711 121.61026061521599 z"/>
<path fill="#ffd600" stroke="#ffd600" d="M33.9375643109255 112.01530824677617 L31.538245833565753 117.05417491365395 L38.802940365474036 114.56955140344063 z"/>
<path fill="#ffd600" stroke="#ffd600" d="M-16.072704159333767 75.73876537928724 L-35.71157419136642 82.00386356180537 L-12.86230089806203 83.88611212876222 z"/>
<path fill="#ffd600" stroke="#ffd600" d="M-12.862300898062028 83.88611212876222 L-35.71157419136642 82.00386356180537 L-38.27430366972642 82.83202646366371 z"/>
<path fill="#ffd600" stroke="#ffd600" d="M-39.79746486807248 84.50913235811264 L-32.93094769860238 98.87777745918001 L-29.775786871823723 94.05201243361725 z"/>
<path fill="#ffd600" stroke="#ffd600" d="M-34.546294011113986 104.07066966278342 L-32.93094769860238 98.87777745918001 L-39.79746486807248 84.50913235811265 z"/>
<path fill="#ffd600" stroke="#ffd600" d="M9.296609763890414 83.03596939291714 L16.277193314317696 85.00407003331709 L16.072704159333767 75.73876537928724 z"/>
<path fill="#ffd600" stroke="#ffd600" d="M8.193793524677385 74.04753810640526 L0 73.47648054145517 L1.8813270733432503 82.1757412688312 z"/>
<path fill="#ffd600" stroke="#ffd600" d="M-32.930947698602374 114.58076738007554 L-34.546294011113986 109.38787517647214 L-39.79746486807248 121.88342263342714 z"/>
<path fill="#ffd600" stroke="#ffd600" d="M-39.79746486807248 84.50913235811264 L-29.775786871823723 94.05201243361726 L-38.27430366972642 82.83202646366371 z"/>
<path fill="#ffd600" stroke="#ffd600" d="M-12.862300898061998 129.5724327104933 L-35.711574191366424 124.38869142973442 L-16.072704159333774 130.65378961225255 z"/>
<path fill="#ffd600" stroke="#ffd600" d="M31.538245833565757 96.40436992560157 L38.802940365474036 91.8230035880992 L34.92172371670689 86.684842976566 z"/>
<path fill="#ffd600" stroke="#ffd600" d="M1.8813270733432939 131.28280357042433 L8.193793524677389 132.34501688513453 L9.296609763890443 130.42257544633839 z"/>
<path fill="#ffd600" stroke="#ffd600" d="M9.296609763890443 130.42257544633839 L8.193793524677389 132.34501688513453 L16.072704159333764 130.65378961225255 z"/>
<path fill="#ffd600" stroke="#ffd600" d="M-38.27430366972642 123.56052852787609 L-29.77578687182371 119.40653240563832 L-39.79746486807248 121.88342263342716 z"/>
<path fill="#ffd600" stroke="#ffd600" d="M16.277193314317714 128.45447480593845 L23.33394978682328 127.90738554708433 L22.496673396168518 125.4705278477828 z"/>
<path fill="#ffd600" stroke="#ffd600" d="M16.07270415933376 130.65378961225255 L23.33394978682328 127.90738554708433 L16.27719331431771 128.45447480593845 z"/>
<path fill="#ffd600" stroke="#ffd600" d="M38.80294036547403 114.56955140344061 L31.53824583356575 117.05417491365397 L34.92172371670688 119.70771201497381 z"/>
<path fill="#ffd600" stroke="#ffd600" d="M27.66423403327111 91.84828422403953 L31.538245833565753 96.40436992560159 L34.921723716706886 86.684842976566 z"/>
<path fill="#ffd600" stroke="#ffd600" d="M22.496673396168514 125.47052784778279 L23.333949786823275 127.90738554708435 L29.698484809834984 124.21134745765315 z"/>
<path fill="#ffd600" stroke="#ffd600" d="M8.193793524677385 74.04753810640526 L1.8813270733432503 82.1757412688312 L9.296609763890414 83.03596939291712 z"/>
<path fill="#ffd600" stroke="#ffd600" d="M-38.27430366972642 123.56052852787609 L-35.71157419136642 124.38869142973442 L-12.862300898061994 129.5724327104933 z"/>
<path fill="#ffd600" stroke="#ffd600" d="M-39.797464868072474 84.50913235811265 L-41.999999999999986 103.19627749576989 L-34.54629401111398 104.07066966278342 z"/>
<path fill="#ffd600" stroke="#ffd600" d="M38.802940365474036 91.82300358809918 L33.9375643109255 101.44323659247937 L41.19298177693568 97.39823273769868 z"/>
<path fill="#ffd600" stroke="#ffd600" d="M-8.193793524677385 74.04753810640526 L-5.621924380208581 82.46360897206667 L0 73.47648054145517 z"/>
<path fill="#ffd600" stroke="#ffd600" d="M9.296609763890414 83.03596939291712 L16.072704159333767 75.73876537928723 L8.193793524677385 74.04753810640524 z"/>
<path fill="#ffd600" stroke="#ffd600" d="M29.698484809835 124.21134745765316 L34.9217237167069 119.70771201497381 L27.664234033271107 121.61026061521599 z"/>
<path fill="#ffd600" stroke="#ffd600" d="M27.66423403327111 121.610260615216 L22.496673396168518 125.4705278477828 L29.69848480983499 124.21134745765316 z"/>
<path fill="#ffd600" stroke="#ffd600" d="M-8.1937935246774 132.34501688513453 L-12.862300898061992 129.5724327104933 L-16.07270415933377 130.65378961225255 z"/>
<path fill="#ffd600" stroke="#ffd600" d="M-41.99999999999999 103.19627749576989 L-34.546294011113986 109.38787517647211 L-34.546294011113986 104.07066966278342 z"/>
<path fill="#ffd600" stroke="#ffd600" d="M34.74999999999998 106.72927241962782 L41.19298177693565 108.99432225384118 L41.999999999999986 103.19627749576995 z"/>
<path fill="#ffd600" stroke="#ffd600" d="M-19.501250521342758 127.08180876694608 L-25.228343344328778 123.63952284401772 L-38.27430366972642 123.56052852787609 z"/>
<path fill="#ffd600" stroke="#ffd600" d="M-12.86230089806203 83.88611212876222 L-8.193793524677385 74.04753810640526 L-16.072704159333767 75.73876537928724 z"/>
<path fill="#ffd600" stroke="#ffd600" d="M-5.1435165564188825e-15 132.9160744500846 L1.8813270733432939 131.2828035704243 L-5.621924380208541 130.99493586718884 z"/>
<path fill="#ffd600" stroke="#ffd600" d="M34.92172371670689 86.684842976566 L29.69848480983499 82.18120753388665 L27.66423403327111 91.84828422403953 z"/>
<path fill="#ffd600" stroke="#ffd600" d="M33.9375643109255 112.01530824677619 L41.19298177693564 108.99432225384115 L34.75000000000003 106.7292724196278 z"/>
<path fill="#ffd600" stroke="#ffd600" d="M38.802940365474015 114.56955140344063 L41.192981776935675 108.99432225384113 L33.937564310925495 112.01530824677617 z"/>
<path fill="#ffd600" stroke="#ffd600" d="M23.33394978682329 78.48516944445547 L29.698484809834994 82.18120753388665 L34.9217237167069 86.68484297656599 L38.80294036547404 91.82300358809918 L41.19298177693568 97.39823273769868 L42 103.19627749576989 L41.192981776935675 108.9943222538411 L38.802940365474036 114.56955140344061 L34.9217237167069 119.70771201497378 L29.698484809834994 124.21134745765313 L23.333949786823283 127.90738554708432 L16.072704159333767 130.65378961225252 L8.19379352467739 132.34501688513453 L-5.143516556418883e-15 132.9160744500846 L-8.193793524677401 132.34501688513453 L-16.072704159333774 130.65378961225252 L-35.711574191366424 124.38869142973441 L-38.27430366972643 123.56052852787606 L-39.79746486807249 121.88342263342713 L-42 103.19627749576989 L-39.79746486807249 84.50913235811265 L-38.27430366972643 82.8320264636637 L-35.711574191366424 82.00386356180537 L-16.07270415933377 75.73876537928724 L-8.193793524677387 74.04753810640526 L0 73.47648054145517 L8.193793524677387 74.04753810640526 L16.07270415933377 75.73876537928724 z"/>
<path fill="#ffd600" stroke="#ffd600" d="M-29.775786871823723 94.05201243361726 L-25.2283433443288 89.81902199523786 L-38.27430366972642 82.8320264636637 z"/>
<path fill="#ffd600" stroke="#ffd600" d="M-5.621924380208542 130.99493586718884 L-12.862300898061994 129.5724327104933 L-8.1937935246774 132.34501688513453 z"/>
<path fill="#ffd600" stroke="#ffd600" d="M-5.1435165564188825e-15 132.9160744500846 L-5.621924380208542 130.99493586718884 L-8.1937935246774 132.34501688513453 z"/>
<path fill="#ffd600" stroke="#ffd600" d="M41.99999999999999 103.19627749576989 L41.192981776935675 97.39823273769868 L34.74999999999999 106.72927241962776 z"/>
<path fill="#ffd600" stroke="#ffd600" d="M41.192981776935675 97.39823273769868 L33.93756431092551 101.44323659247937 L34.75 106.72927241962776 z"/>
<path fill="#ffd600" stroke="#ffd600" d="M-5.1435165564188825e-15 132.9160744500846 L8.193793524677389 132.34501688513453 L1.8813270733432939 131.2828035704243 z"/>
<path fill="#ffd600" stroke="#ffd600" d="M-29.775786871823726 94.05201243361725 L-32.93094769860239 98.87777745918002 L-34.54629401111399 104.0706696627834 L-34.54629401111399 109.38787517647211 L-32.93094769860238 114.58076738007553 L-29.775786871823716 119.40653240563827 L-25.22834334432878 123.63952284401766 L-19.501250521342765 127.08180876694605 L-12.862300898061996 129.5724327104933 L-5.621924380208543 130.99493586718884 L1.881327073343294 131.2828035704243 L9.296609763890444 130.42257544633839 L16.277193314317717 128.45447480593842 L22.49667339616852 125.47052784778279 L27.664234033271114 121.61026061521598 L31.538245833565753 117.05417491365394 L33.93756431092551 112.01530824677614 L34.75 106.72927241962775 L33.93756431092551 101.44323659247937 L31.538245833565757 96.40436992560157 L27.664234033271114 91.84828422403955 L22.496673396168504 87.98801699147272 L16.2771933143177 85.00407003331708 L9.296609763890416 83.03596939291712 L1.8813270733432506 82.1757412688312 L-5.621924380208582 82.46360897206667 L-12.862300898062031 83.88611212876222 L-19.50125052134279 86.37673607230948 L-25.228343344328806 89.81902199523786 z"/>
<path fill="#ffd600" stroke="#ffd600" d="M9.296609763890443 130.42257544633839 L16.072704159333764 130.65378961225255 L16.277193314317714 128.45447480593842 z"/>
<path fill="#ffd600" stroke="#ffd600" d="M8.193793524677389 93.48207272269794 L8.193793524677389 132.34501688513453 L-5.1435165564188825e-15 132.9160744500846 L-5.1435165564188825e-15 94.05313028764802 z"/>
<path fill="#ffd600" stroke="#ffd600" d="M16.072704159333764 91.79084544981598 L16.072704159333764 130.65378961225252 L8.193793524677389 132.3450168851345 L8.193793524677389 93.48207272269796 z"/>
<path fill="#ffd600" stroke="#ffd600" d="M23.33394978682328 89.04444138464773 L23.33394978682328 127.90738554708432 L16.072704159333764 130.65378961225252 L16.072704159333764 91.79084544981595 z"/>
<path fill="#ffd600" stroke="#ffd600" d="M29.698484809834973 85.34840329521658 L29.698484809834966 124.21134745765313 L23.33394978682325 127.90738554708432 L23.333949786823258 89.04444138464777 z"/>
<path fill="#ffd600" stroke="#ffd600" d="M34.92172371670688 80.84476785253723 L34.921723716706886 119.70771201497378 L29.698484809834973 124.21134745765313 L29.698484809834962 85.34840329521658 z"/>
<path fill="#ffd600" stroke="#ffd600" d="M38.80294036547402 75.70660724100405 L38.80294036547403 114.5695514034406 L34.92172371670688 119.70771201497377 L34.92172371670687 80.84476785253723 z"/>
<path fill="#ffd600" stroke="#ffd600" d="M41.19298177693567 70.13137809140457 L41.19298177693566 108.9943222538411 L38.80294036547403 114.56955140344061 L38.80294036547403 75.70660724100405 z"/>
<path fill="#ffd600" stroke="#ffd600" d="M42 64.33333333333334 L41.99999999999999 103.19627749576989 L41.19298177693567 108.99432225384112 L41.19298177693567 70.13137809140457 z"/>
<path fill="#ffd600" stroke="#ffd600" d="M41.19298177693568 58.53528857526214 L41.19298177693568 97.39823273769868 L42 103.19627749576989 L42 64.33333333333334 z"/>
<path fill="#ffd600" stroke="#ffd600" d="M38.80294036547404 52.96005942566265 L38.802940365474036 91.82300358809918 L41.19298177693569 97.39823273769868 L41.19298177693569 58.535288575262136 z"/>
<path fill="#ffd600" stroke="#ffd600" d="M34.921723716706914 47.82189881412945 L34.92172371670689 86.684842976566 L38.80294036547406 91.82300358809918 L38.80294036547405 52.96005942566265 z"/>
<path fill="#ffd600" stroke="#ffd600" d="M29.698484809835 43.31826337145011 L29.698484809835005 82.18120753388665 L34.921723716706914 86.68484297656599 L34.921723716706914 47.821898814129455 z"/>
<path fill="#ffd600" stroke="#ffd600" d="M23.3339497868233 39.622225282018924 L23.333949786823307 78.48516944445547 L29.698484809835012 82.18120753388665 L29.698484809835005 43.3182633714501 z"/>
<path fill="#ffd600" stroke="#ffd600" d="M16.072704159333767 36.87582121685066 L16.072704159333767 75.7387653792872 L23.333949786823286 78.48516944445542 L23.333949786823286 39.62222528201888 z"/>
<path fill="#ffd600" stroke="#ffd600" d="M8.193793524677385 35.18459394396866 L8.193793524677385 74.04753810640524 L16.072704159333767 75.73876537928724 L16.072704159333767 36.875821216850646 z"/>
<path fill="#ffd600" stroke="#ffd600" d="M0 34.613536379018605 L0 73.47648054145515 L8.193793524677385 74.04753810640523 L8.193793524677385 35.184593943968686 z"/>
<path fill="#ffd600" stroke="#ffd600" d="M-8.193793524677385 35.184593943968686 L-8.193793524677385 74.04753810640523 L0 73.47648054145515 L0 34.613536379018605 z"/>
<path fill="#ffd600" stroke="#ffd600" d="M-16.072704159333767 36.875821216850646 L-16.072704159333767 75.73876537928724 L-8.193793524677385 74.04753810640524 L-8.193793524677385 35.18459394396866 z"/>
<path fill="#ffd600" stroke="#ffd600" d="M-35.71157419136642 43.14091939936878 L-35.71157419136642 82.00386356180532 L-16.072704159333767 75.73876537928719 L-16.072704159333767 36.875821216850646 z"/>
<path fill="#ffd600" stroke="#ffd600" d="M-38.27430366972642 43.96908230122714 L-38.27430366972642 82.83202646366367 L-35.71157419136642 82.00386356180533 L-35.71157419136642 43.140919399368805 z"/>
<path fill="#ffd600" stroke="#ffd600" d="M-39.797464868072495 45.64618819567611 L-39.79746486807251 84.50913235811265 L-38.27430366972645 82.83202646366371 L-38.274303669726436 43.96908230122717 z"/>
<path fill="#ffd600" stroke="#ffd600" d="M-42 64.33333333333334 L-42 103.19627749576988 L-39.79746486807249 84.50913235811265 L-39.79746486807249 45.64618819567611 z"/>
<path fill="#ffd600" stroke="#ffd600" d="M-39.79746486807248 83.02047847099058 L-39.79746486807248 121.88342263342713 L-41.99999999999999 103.19627749576988 L-41.99999999999999 64.33333333333334 z"/>
<path fill="#ffd600" stroke="#ffd600" d="M-38.27430366972641 84.69758436543952 L-38.27430366972642 123.56052852787607 L-39.79746486807249 121.88342263342713 L-39.797464868072474 83.02047847099058 z"/>
<path fill="#ffd600" stroke="#ffd600" d="M-35.71157419136642 85.52574726729786 L-35.71157419136642 124.3886914297344 L-38.27430366972642 123.56052852787606 L-38.27430366972642 84.69758436543952 z"/>
<path fill="#ffd600" stroke="#ffd600" d="M-16.07270415933377 91.79084544981596 L-16.07270415933377 130.65378961225252 L-35.71157419136641 124.38869142973441 L-35.71157419136641 85.52574726729783 z"/>
<path fill="#ffd600" stroke="#ffd600" d="M-8.1937935246774 93.48207272269794 L-8.1937935246774 132.34501688513447 L-16.07270415933377 130.6537896122525 L-16.07270415933377 91.79084544981595 z"/>
<path fill="#ffd600" stroke="#ffd600" d="M-5.1435165564188825e-15 94.05313028764803 L-5.1435165564188825e-15 132.91607445008455 L-8.1937935246774 132.34501688513447 L-8.1937935246774 93.48207272269795 z"/>
<path fill="#ffd600" stroke="#ffd600" d="M8.19379352467739 93.48207272269798 L-5.143516556418883e-15 94.05313028764806 L-8.193793524677401 93.48207272269798 L-16.072704159333774 91.79084544981599 L-35.711574191366424 85.52574726729786 L-38.27430366972643 84.69758436543952 L-39.79746486807249 83.02047847099058 L-42 64.33333333333334 L-39.79746486807249 45.6461881956761 L-38.27430366972643 43.96908230122716 L-35.711574191366424 43.14091939936883 L-16.07270415933377 36.8758212168507 L-8.193793524677387 35.184593943968714 L0 34.61353637901863 L8.193793524677387 35.184593943968714 L16.07270415933377 36.8758212168507 L23.33394978682329 39.622225282018924 L29.698484809834994 43.31826337145011 L34.9217237167069 47.82189881412945 L38.80294036547404 52.96005942566265 L41.19298177693568 58.53528857526214 L42 64.33333333333334 L41.192981776935675 70.13137809140456 L38.802940365474036 75.70660724100405 L34.9217237167069 80.84476785253723 L29.698484809834994 85.34840329521658 L23.333949786823283 89.04444138464777 L16.072704159333767 91.79084544981599 z"/>
<path fill="#ffd600" stroke="#ffd600" d="M8.19379352467739 132.34501688513453 L16.072704159333767 130.65378961225255 L23.333949786823283 127.90738554708433 L29.698484809834994 124.21134745765313 L34.9217237167069 119.70771201497378 L38.802940365474036 114.56955140344061 L41.192981776935675 108.9943222538411 L42 103.19627749576989 L41.19298177693568 97.39823273769868 L38.80294036547404 91.8230035880992 L34.9217237167069 86.68484297656599 L29.698484809834994 82.18120753388664 L23.33394978682329 78.48516944445547 L16.07270415933377 75.73876537928723 L8.193793524677387 74.04753810640526 L0 73.47648054145517 L-8.193793524677387 74.04753810640526 L-16.07270415933377 75.73876537928723 L-35.711574191366424 82.00386356180537 L-38.27430366972643 82.8320264636637 L-39.79746486807249 84.50913235811265 L-42 103.19627749576989 L-39.79746486807249 121.88342263342713 L-38.27430366972643 123.56052852787607 L-35.711574191366424 124.38869142973441 L-16.072704159333774 130.65378961225252 L-8.193793524677401 132.34501688513453 L-5.143516556418883e-15 132.9160744500846 z"/>
<path fill="#3c3c3c" stroke="#3c3c3c" d="M9.999999999999998 186.57495769881555 L9.999999999999995 200.70693739424703 L9.135454576426 203.5850636909357 L9.135454576426005 189.45308399550422 z"/>
<path fill="#3c3c3c" stroke="#3c3c3c" d="M9.135454576426003 183.6968314021269 L9.135454576426019 197.82881109755837 L10.000000000000009 200.70693739424703 L10.000000000000007 186.57495769881555 z"/>
<path fill="#3c3c3c" stroke="#3c3c3c" d="M6.691306063588591 181.31635928909228 L6.691306063588599 195.44833898452376 L9.135454576426017 197.82881109755837 L9.135454576426008 183.69683140212692 z"/>
<path fill="#3c3c3c" stroke="#3c3c3c" d="M3.0901699437494745 179.8451466139656 L3.0901699437494745 193.97712630939705 L6.6913060635885815 195.44833898452373 L6.6913060635885815 181.31635928909228 z"/>
<path fill="#3c3c3c" stroke="#3c3c3c" d="M-8.090169943749483 182.41570571051247 L-8.090169943749476 196.54768540594395 L-5.000000000000023 194.57881854716322 L-5.000000000000032 180.44683885173177 z"/>
<path fill="#3c3c3c" stroke="#3c3c3c" d="M-9.781476007338071 185.10374502368887 L-9.78147600733806 199.23572471912036 L-8.090169943749476 196.54768540594395 L-8.090169943749487 182.41570571051247 z"/>
<path fill="#3c3c3c" stroke="#3c3c3c" d="M-9.781476007338055 188.04617037394226 L-9.781476007338055 202.1781500693737 L-9.781476007338055 199.23572471912033 L-9.781476007338055 185.1037450236889 z"/>
<path fill="#3c3c3c" stroke="#3c3c3c" d="M-8.090169943749457 190.73420968711864 L-8.09016994374947 204.86618938255012 L-9.781476007338044 202.17815006937371 L-9.781476007338034 188.04617037394223 z"/>
<path fill="#3c3c3c" stroke="#3c3c3c" d="M-1.0452846326765333 179.5375794138238 L-1.0452846326765333 193.66955910925526 L3.0901699437494745 193.97712630939702 L3.0901699437494745 179.84514661396557 z"/>
<path fill="#3c3c3c" stroke="#3c3c3c" d="M-4.999999999999997 180.4468388517317 L-4.999999999999997 194.57881854716322 L-1.0452846326765333 193.6695591092553 L-1.0452846326765333 179.53757941382378 z"/>
<path fill="#3c3c3c" stroke="#3c3c3c" d="M9.135454576425982 189.45308399550422 L9.135454576426001 203.5850636909357 L6.691306063588576 205.96553580397034 L6.691306063588558 191.83355610853886 z"/>
<path fill="#3c3c3c" stroke="#3c3c3c" d="M3.0901699437494687 193.30476878366548 L3.0901699437494687 207.43674847909696 L-1.0452846326765415 207.74431567923872 L-1.0452846326765415 193.61233598380727 z"/>
<path fill="#3c3c3c" stroke="#3c3c3c" d="M6.691306063588577 191.8335561085388 L6.691306063588577 205.96553580397028 L3.0901699437494687 207.43674847909696 L3.0901699437494687 193.30476878366548 z"/>
<path fill="#3c3c3c" stroke="#3c3c3c" d="M-4.999999999999998 192.70307654589936 L-5.000000000000002 206.83505624133085 L-8.090169943749446 204.86618938255012 L-8.090169943749443 190.73420968711864 z"/>
<path fill="#3c3c3c" stroke="#3c3c3c" d="M-1.0452846326765415 193.61233598380727 L-1.0452846326765415 207.74431567923878 L-5.000000000000007 206.83505624133085 L-5.000000000000007 192.70307654589934 z"/>
<path fill="#3c3c3c" stroke="#3c3c3c" d="M10 186.57495769881558 L9.135454576426005 189.45308399550422 L6.691306063588579 191.83355610853886 L3.090169943749469 193.30476878366554 L-1.0452846326765417 193.6123359838073 L-5.000000000000008 192.70307654589934 L-8.090169943749476 190.73420968711864 L-9.781476007338057 188.04617037394226 L-9.781476007338055 185.10374502368887 L-8.090169943749473 182.41570571051247 L-4.999999999999998 180.44683885173177 L-1.0452846326765335 179.5375794138238 L3.090169943749475 179.8451466139656 L6.691306063588582 181.31635928909228 L9.135454576426008 183.6968314021269 z"/>
<path fill="#3c3c3c" stroke="#3c3c3c" d="M10 200.70693739424703 L9.135454576426008 197.82881109755837 L6.691306063588582 195.44833898452376 L3.090169943749475 193.97712630939705 L-1.0452846326765335 193.6695591092553 L-4.999999999999998 194.57881854716325 L-8.090169943749473 196.54768540594395 L-9.781476007338055 199.23572471912036 L-9.781476007338057 202.17815006937371 L-8.090169943749476 204.86618938255012 L-5.000000000000008 206.83505624133082 L-1.0452846326765417 207.74431567923878 L3.090169943749469 207.43674847909702 L6.691306063588579 205.96553580397034 L9.135454576426005 203.5850636909357 z"/>
</svg>