<?xml version="1.0" encoding="UTF-8"?>
<!-- Generated by jsxcad -->
<!DOCTYPE svg PUBLIC "-//W3C//DTD SVG 1.1 Tiny//EN" "http://www.w3.org/Graphics/SVG/1.1/DTD/svg11-tiny.dtd">
<svg baseProfile="tiny" height="177.6528014225351mm" width="92.00000000000006mm" viewBox="-42.00000000000003 -212.28517807394698 92.00000000000006 177.6528014225351" version="1.1" stroke="black" stroke-width=".1" fill="none" xmlns="http://www.w3.org/2000/svg">
<path fill="#000000" stroke="#000000" d="M17.976692563818006 55.85941640328193 L17.97669256381798 59.392411327139804 L20.98002219755827 63.067921335759664 L20.980022197558295 59.534926411901786 z"/>
<path fill="#000000" stroke="#000000" d="M15.812430632630408 56.74491587651243 L15.812430632630408 60.277910800370314 L17.976692563817977 59.39241132713978 L17.976692563817977 55.85941640328189 z"/>
<path fill="#000000" stroke="#000000" d="M18.8157602663707 60.42042588513233 L18.815760266370706 63.953420808990195 L15.812430632630416 60.277910800370336 L15.812430632630411 56.744915876512465 z"/>
<path fill="#000000" stroke="#000000" d="M20.980022197558267 59.534926411901765 L20.980022197558267 63.06792133575965 L18.815760266370695 63.95342080899018 L18.815760266370695 60.420425885132296 z"/>
<path fill="#000000" stroke="#000000" d="M17.976692563817977 55.85941640328193 L20.980022197558267 59.53492641190179 L18.8157602663707 60.42042588513233 L15.81243063263041 56.744915876512465 z"/>
<path fill="#000000" stroke="#000000" d="M17.976692563817977 59.3924113271398 L15.81243063263041 60.27791080037033 L18.8157602663707 63.95342080899019 L20.980022197558267 63.067921335759664 z"/>
<path fill="#000000" stroke="#000000" d="M16.67813540510544 60.9836094882355 L14.946725860155377 60.63211058966258 L17.950055493895675 64.30762059828241 L19.68146503884572 64.65911949685537 z"/>
<path fill="#000000" stroke="#000000" d="M16.678135405105433 60.98360948823548 L17.976692563817974 60.45230980429716 L17.976692563817974 59.39241132713973 L14.94672586015538 60.632110589662474 z"/>
<path fill="#000000" stroke="#000000" d="M17.976692563817977 59.3924113271398 L20.980022197558267 63.06792133575966 L17.95005549389567 64.3076205982824 L14.946725860155382 60.632110589662545 z"/>
<path fill="#000000" stroke="#000000" d="M19.681465038845722 64.65911949685533 L17.95005549389567 64.3076205982824 L20.980022197558263 63.067921335759664 L20.980022197558263 64.12781981291701 z"/>
<path fill="#000000" stroke="#000000" d="M17.976692563817995 60.45230980429716 L20.980022197558267 64.12781981291702 L20.98002219755827 63.067921335759664 L17.976692563818 59.3924113271398 z"/>
<path fill="#000000" stroke="#000000" d="M16.678135405105436 60.98360948823548 L19.681465038845726 64.65911949685534 L20.980022197558267 64.12781981291702 L17.976692563817977 60.45230980429715 z"/>
<path fill="#000000" stroke="#000000" d="M20.980022197558252 71.79840692143152 L20.98002219755826 75.33140184528939 L17.976692563817974 79.00691185390926 L17.97669256381798 75.47391693005139 z"/>
<path fill="#000000" stroke="#000000" d="M18.815760266370695 70.91290744820095 L18.815760266370695 74.44590237205884 L20.980022197558267 75.33140184528938 L20.980022197558267 71.79840692143149 z"/>
<path fill="#000000" stroke="#000000" d="M15.812430632630399 74.58841745682086 L15.812430632630406 78.12141238067873 L18.815760266370695 74.44590237205887 L18.815760266370685 70.912907448201 z"/>
<path fill="#000000" stroke="#000000" d="M17.976692563817977 75.47391693005136 L17.976692563817977 79.00691185390924 L15.812430632630408 78.12141238067872 L15.812430632630408 74.58841745682084 z"/>
<path fill="#000000" stroke="#000000" d="M20.980022197558267 71.79840692143154 L17.976692563817977 75.47391693005139 L15.81243063263041 74.58841745682086 L18.8157602663707 70.912907448201 z"/>
<path fill="#000000" stroke="#000000" d="M20.980022197558267 75.3314018452894 L18.8157602663707 74.44590237205887 L15.81243063263041 78.12141238067872 L17.976692563817977 79.00691185390926 z"/>
<path fill="#000000" stroke="#000000" d="M19.681465038845722 75.86000063850844 L17.95005549389567 74.09170258276666 L14.94672586015538 77.76721259138651 L16.678135405105436 79.5355106471283 z"/>
<path fill="#000000" stroke="#000000" d="M19.681465038845722 75.86000063850844 L20.980022197558263 76.39130032244675 L20.980022197558263 75.33140184528932 L17.95005549389567 74.09170258276657 z"/>
<path fill="#000000" stroke="#000000" d="M20.980022197558267 75.33140184528939 L17.976692563817977 79.00691185390926 L14.946725860155382 77.76721259138652 L17.95005549389567 74.09170258276664 z"/>
<path fill="#000000" stroke="#000000" d="M16.678135405105433 79.53551064712829 L14.94672586015538 77.76721259138651 L17.976692563817974 79.00691185390926 L17.976692563817974 80.0668103310666 z"/>
<path fill="#000000" stroke="#000000" d="M20.98002219755825 76.39130032244675 L17.976692563817956 80.06681033106662 L17.976692563817977 79.00691185390926 L20.98002219755825 75.33140184528939 z"/>
<path fill="#000000" stroke="#000000" d="M19.681465038845726 75.86000063850844 L16.678135405105436 79.53551064712829 L17.976692563817977 80.06681033106662 L20.980022197558267 76.39130032244677 z"/>
<path fill="#000000" stroke="#000000" d="M-17.97669256381798 75.47391693005139 L-17.976692563817974 79.00691185390926 L-20.98002219755826 75.33140184528939 L-20.980022197558252 71.79840692143152 z"/>
<path fill="#000000" stroke="#000000" d="M-15.812430632630408 74.58841745682084 L-15.812430632630408 78.12141238067872 L-17.976692563817977 79.00691185390924 L-17.976692563817977 75.47391693005136 z"/>
<path fill="#000000" stroke="#000000" d="M-18.815760266370685 70.912907448201 L-18.815760266370695 74.44590237205887 L-15.812430632630406 78.12141238067873 L-15.812430632630399 74.58841745682086 z"/>
<path fill="#000000" stroke="#000000" d="M-20.980022197558267 71.79840692143149 L-20.980022197558267 75.33140184528938 L-18.815760266370695 74.44590237205884 L-18.815760266370695 70.91290744820095 z"/>
<path fill="#000000" stroke="#000000" d="M-17.976692563817977 75.47391693005139 L-20.980022197558267 71.79840692143154 L-18.8157602663707 70.912907448201 L-15.81243063263041 74.58841745682086 z"/>
<path fill="#000000" stroke="#000000" d="M-17.976692563817977 79.00691185390926 L-15.81243063263041 78.12141238067872 L-18.8157602663707 74.44590237205887 L-20.980022197558267 75.3314018452894 z"/>
<path fill="#000000" stroke="#000000" d="M-16.678135405105436 79.5355106471283 L-14.94672586015538 77.76721259138651 L-17.95005549389567 74.09170258276666 L-19.681465038845722 75.86000063850844 z"/>
<path fill="#000000" stroke="#000000" d="M-16.678135405105433 79.53551064712829 L-17.976692563817974 80.0668103310666 L-17.976692563817974 79.00691185390926 L-14.94672586015538 77.76721259138651 z"/>
<path fill="#000000" stroke="#000000" d="M-17.976692563817977 79.00691185390926 L-20.980022197558267 75.33140184528939 L-17.95005549389567 74.09170258276664 L-14.946725860155382 77.76721259138652 z"/>
<path fill="#000000" stroke="#000000" d="M-19.681465038845722 75.86000063850844 L-17.95005549389567 74.09170258276657 L-20.980022197558263 75.33140184528932 L-20.980022197558263 76.39130032244675 z"/>
<path fill="#000000" stroke="#000000" d="M-17.976692563817956 80.06681033106662 L-20.98002219755825 76.39130032244675 L-20.98002219755825 75.33140184528939 L-17.976692563817977 79.00691185390926 z"/>
<path fill="#000000" stroke="#000000" d="M-16.678135405105436 79.53551064712829 L-19.681465038845726 75.86000063850844 L-20.980022197558267 76.39130032244677 L-17.976692563817977 80.06681033106662 z"/>
<path fill="#000000" stroke="#000000" d="M-20.980022197558295 59.534926411901786 L-20.98002219755827 63.067921335759664 L-17.97669256381798 59.392411327139804 L-17.976692563818006 55.85941640328193 z"/>
<path fill="#000000" stroke="#000000" d="M-18.815760266370695 60.420425885132296 L-18.815760266370695 63.95342080899018 L-20.980022197558267 63.06792133575965 L-20.980022197558267 59.534926411901765 z"/>
<path fill="#000000" stroke="#000000" d="M-15.812430632630411 56.744915876512465 L-15.812430632630416 60.277910800370336 L-18.815760266370706 63.953420808990195 L-18.8157602663707 60.42042588513233 z"/>
<path fill="#000000" stroke="#000000" d="M-17.976692563817977 55.85941640328189 L-17.976692563817977 59.39241132713978 L-15.812430632630408 60.277910800370314 L-15.812430632630408 56.74491587651243 z"/>
<path fill="#000000" stroke="#000000" d="M-20.980022197558267 59.53492641190179 L-17.976692563817977 55.85941640328193 L-15.81243063263041 56.744915876512465 L-18.8157602663707 60.42042588513233 z"/>
<path fill="#000000" stroke="#000000" d="M-20.980022197558267 63.067921335759664 L-18.8157602663707 63.95342080899019 L-15.81243063263041 60.27791080037033 L-17.976692563817977 59.3924113271398 z"/>
<path fill="#000000" stroke="#000000" d="M-19.68146503884572 64.65911949685537 L-17.950055493895675 64.30762059828241 L-14.946725860155377 60.63211058966258 L-16.67813540510544 60.9836094882355 z"/>
<path fill="#000000" stroke="#000000" d="M-19.681465038845722 64.65911949685533 L-20.980022197558263 64.12781981291701 L-20.980022197558263 63.067921335759664 L-17.95005549389567 64.3076205982824 z"/>
<path fill="#000000" stroke="#000000" d="M-20.980022197558267 63.06792133575966 L-17.976692563817977 59.3924113271398 L-14.946725860155382 60.632110589662545 L-17.95005549389567 64.3076205982824 z"/>
<path fill="#000000" stroke="#000000" d="M-16.678135405105433 60.98360948823548 L-14.94672586015538 60.632110589662474 L-17.976692563817974 59.39241132713973 L-17.976692563817974 60.45230980429716 z"/>
<path fill="#000000" stroke="#000000" d="M-20.980022197558267 64.12781981291702 L-17.976692563817995 60.45230980429716 L-17.976692563818 59.3924113271398 L-20.98002219755827 63.067921335759664 z"/>
<path fill="#000000" stroke="#000000" d="M-19.681465038845726 64.65911949685534 L-16.678135405105436 60.98360948823548 L-17.976692563817977 60.45230980429715 L-20.980022197558267 64.12781981291702 z"/>
<path fill="#000000" stroke="#000000" d="M4.592425496802574e-16 78.76159052453465 L4.592425496802574e-16 81.58798646362098 L-5.303300858899105 83.14240199798374 L-5.303300858899105 80.31600605889741 z"/>
<path fill="#000000" stroke="#000000" d="M-15.928934010152286 81.59563932764736 L-15.928934010152282 84.42203526673364 L-13.728428328480765 80.67046104497958 L-13.728428328480767 77.84406510589328 z"/>
<path fill="#000000" stroke="#000000" d="M-15.921319796954311 74.09025913233182 L-15.921319796954311 76.9166550714181 L-21.223042334153398 75.35954597484445 L-21.223042334153398 72.53315003575817 z"/>
<path fill="#000000" stroke="#000000" d="M-12.469796037174676 73.90497211398066 L-12.469796037174676 76.73136805306697 L-4.450418679126298 79.46412361673224 L-4.450418679126298 76.63772767764593 z"/>
<path fill="#000000" stroke="#000000" d="M-5.303300858899117 80.31600605889744 L-5.3033008588991155 83.14240199798374 L-7.50000000000001 86.89509306260574 L-7.499999999999999 84.06869712351946 z"/>
<path fill="#000000" stroke="#000000" d="M-26.535532994923855 81.59025140216615 L-26.535532994923855 84.41664734125243 L-21.233810457724765 85.97375643782608 L-21.233810457724765 83.1473604987398 z"/>
<path fill="#000000" stroke="#000000" d="M-26.527918781725894 74.08487120685064 L-26.527918781725894 76.91126714593693 L-28.728424463397413 80.662841367691 L-28.728424463397417 77.83644542860472 z"/>
<path fill="#000000" stroke="#000000" d="M-28.728424463397417 77.8364454286047 L-28.72842446339741 80.662841367691 L-26.535532994923855 84.41664734125246 L-26.535532994923845 81.59025140216615 z"/>
<path fill="#000000" stroke="#000000" d="M7.5000000000000036 84.06869712351946 L7.500000000000002 86.89509306260575 L5.303300858899106 83.14240199798374 L5.30330085889911 80.31600605889744 z"/>
<path fill="#000000" stroke="#000000" d="M15.890862944162434 81.61180310409092 L15.890862944162434 84.43819904317726 L21.19258548136152 85.99530813975092 L21.19258548136152 83.16891220066458 z"/>
<path fill="#000000" stroke="#000000" d="M-35.178950048259566 76.31175632948249 L-35.17895004825956 79.13815226856879 L-39.454452136108884 70.3254455265924 L-39.45445213610889 67.49904958750611 z"/>
<path fill="#000000" stroke="#000000" d="M4.592425496802574e-16 89.37580372250423 L4.592425496802574e-16 92.2021996615905 L5.303300858899106 90.64778412722774 L5.303300858899106 87.82138818814146 z"/>
<path fill="#000000" stroke="#000000" d="M-21.223042334153398 72.53315003575815 L-21.223042334153398 75.35954597484448 L-26.527918781725884 76.91126714593693 L-26.527918781725884 74.08487120685061 z"/>
<path fill="#000000" stroke="#000000" d="M-7.499999999999992 84.06869712351944 L-7.499999999999994 86.89509306260574 L-5.303300858899101 90.64778412722775 L-5.3033008588990995 87.82138818814146 z"/>
<path fill="#000000" stroke="#000000" d="M-27.091262865029638 83.6646185748564 L-27.091262865029645 86.4910145139427 L-35.17895004825955 79.13815226856879 L-35.178950048259566 76.3117563294825 z"/>
<path fill="#000000" stroke="#000000" d="M-16.06781698611879 88.76083960792857 L-16.06781698611879 91.58723554701483 L-27.091262865029652 86.49101451394266 L-27.091262865029652 83.66461857485639 z"/>
<path fill="#000000" stroke="#000000" d="M5.303300858899106 80.31600605889741 L5.303300858899106 83.14240199798374 L4.592425496802574e-16 81.58798646362096 L4.592425496802574e-16 78.76159052453465 z"/>
<path fill="#000000" stroke="#000000" d="M-18.01937735804838 56.69982471407909 L-18.019377358048388 59.52622065316538 L-20.000000000000004 65.66666666666666 L-20.000000000000007 62.84027072758037 z"/>
<path fill="#000000" stroke="#000000" d="M-19.999999999999993 62.84027072758037 L-19.999999999999996 65.66666666666666 L-18.019377358048374 71.80711268016793 L-18.01937735804838 68.98071674108165 z"/>
<path fill="#000000" stroke="#000000" d="M-35.3033008588991 66.59296179220233 L-35.3033008588991 69.41935773128866 L-29.999999999999996 70.97377326565142 L-29.999999999999996 68.14737732656509 z"/>
<path fill="#000000" stroke="#000000" d="M-29.999999999999996 68.14737732656509 L-29.999999999999996 70.97377326565142 L-24.69669914110089 69.41935773128866 L-24.69669914110089 66.59296179220233 z"/>
<path fill="#000000" stroke="#000000" d="M-37.49999999999999 62.84027072758037 L-37.49999999999999 65.66666666666666 L-35.3033008588991 69.41935773128867 L-35.30330085889909 66.59296179220237 z"/>
<path fill="#000000" stroke="#000000" d="M-39.4544521361089 67.49904958750611 L-39.45445213610889 70.32544552659239 L-39.45445213610889 61.00788780674091 L-39.45445213610889 58.181491867654614 z"/>
<path fill="#000000" stroke="#000000" d="M-13.697971475688869 47.82254432463121 L-13.697971475688865 50.648940263717506 L-15.890862944162434 46.895134290156065 L-15.890862944162425 44.06873835106977 z"/>
<path fill="#000000" stroke="#000000" d="M-15.898477157360416 51.574118546385286 L-15.898477157360412 54.40051448547158 L-13.697971475688881 50.648940263717506 L-13.697971475688883 47.82254432463121 z"/>
<path fill="#000000" stroke="#000000" d="M-21.20335360493289 53.12583971747774 L-21.20335360493289 55.95223565656401 L-15.898477157360404 54.400514485471554 L-15.898477157360404 51.574118546385286 z"/>
<path fill="#000000" stroke="#000000" d="M-4.450418679126285 49.04281377751475 L-4.450418679126285 51.86920971660099 L-12.469796037174666 54.601965280266256 L-12.469796037174666 51.77556934118002 z"/>
<path fill="#000000" stroke="#000000" d="M-15.890862944162434 44.06873835106974 L-15.890862944162434 46.89513429015602 L-21.19258548136152 45.33802519358236 L-21.19258548136152 42.51162925449608 z"/>
<path fill="#000000" stroke="#000000" d="M-28.697967610605534 47.81492464734264 L-28.697967610605527 50.64132058642893 L-26.505076142131973 54.39512655999038 L-26.505076142131976 51.568730620904084 z"/>
<path fill="#000000" stroke="#000000" d="M-39.4544521361089 58.181491867654614 L-39.454452136108905 61.007887806740904 L-35.178950048259566 52.19518106476452 L-35.17895004825956 49.36878512567822 z"/>
<path fill="#000000" stroke="#000000" d="M-29.999999999999993 57.53316412859559 L-29.999999999999993 60.35956006768186 L-35.3033008588991 61.91397560204462 L-35.3033008588991 59.087579662958355 z"/>
<path fill="#000000" stroke="#000000" d="M-24.69669914110089 59.08757966295833 L-24.69669914110089 61.91397560204466 L-29.999999999999996 60.35956006768189 L-29.999999999999996 57.533164128595566 z"/>
<path fill="#000000" stroke="#000000" d="M18.019377358048366 68.98071674108165 L18.01937735804837 71.80711268016795 L19.999999999999996 65.66666666666666 L19.999999999999993 62.84027072758037 z"/>
<path fill="#000000" stroke="#000000" d="M4.450418679126267 76.63772767764597 L4.450418679126267 79.46412361673221 L12.469796037174651 76.73136805306694 L12.469796037174651 73.9049721139807 z"/>
<path fill="#000000" stroke="#000000" d="M12.46979603717464 73.90497211398072 L12.469796037174634 76.731368053067 L18.01937735804836 71.80711268016795 L18.019377358048366 68.98071674108166 z"/>
<path fill="#000000" stroke="#000000" d="M21.20335360493289 72.55470173768298 L21.20335360493289 75.38109767676924 L15.898477157360404 76.9328188478617 L15.898477157360404 74.10642290877543 z"/>
<path fill="#000000" stroke="#000000" d="M12.469796037174667 51.77556934118 L12.469796037174667 54.60196528026632 L4.4504186791262885 51.869209716601056 L4.4504186791262885 49.04281377751474 z"/>
<path fill="#000000" stroke="#000000" d="M-21.233810457724765 83.1473604987398 L-21.233810457724765 85.97375643782607 L-15.928934010152282 84.42203526673362 L-15.928934010152282 81.59563932764735 z"/>
<path fill="#000000" stroke="#000000" d="M29.999999999999996 57.533164128595566 L29.999999999999996 60.35956006768189 L24.69669914110089 61.91397560204465 L24.69669914110089 59.08757966295833 z"/>
<path fill="#000000" stroke="#000000" d="M18.019377358048402 56.699824714079085 L18.019377358048388 59.52622065316539 L12.469796037174689 54.60196528026632 L12.469796037174682 51.775569341180024 z"/>
<path fill="#000000" stroke="#000000" d="M15.921319796954311 51.590282322828884 L15.921319796954311 54.416678261915166 L21.223042334153398 55.97378735848883 L21.223042334153398 53.147391419402545 z"/>
<path fill="#000000" stroke="#000000" d="M-24.6966991411009 66.59296179220237 L-24.696699141100897 69.41935773128867 L-22.500000000000004 65.66666666666666 L-22.500000000000004 62.84027072758037 z"/>
<path fill="#000000" stroke="#000000" d="M-35.303300858899114 59.087579662958355 L-35.303300858899114 61.91397560204465 L-37.50000000000001 65.66666666666666 L-37.50000000000001 62.84027072758037 z"/>
<path fill="#000000" stroke="#000000" d="M-21.19258548136152 42.5116292544961 L-21.19258548136152 45.33802519358237 L-26.49746192893401 46.88974636467483 L-26.49746192893401 44.06335042558856 z"/>
<path fill="#000000" stroke="#000000" d="M-7.499999999999989 41.61184433164129 L-7.499999999999992 44.438240270727576 L-5.303300858899097 48.19093133534959 L-5.303300858899094 45.36453539626329 z"/>
<path fill="#000000" stroke="#000000" d="M20 62.84027072758037 L20.000000000000007 65.66666666666666 L18.019377358048384 59.52622065316539 L18.019377358048388 56.699824714079085 z"/>
<path fill="#000000" stroke="#000000" d="M-12.469796037174678 51.77556934118003 L-12.469796037174687 54.60196528026632 L-18.01937735804838 59.52622065316539 L-18.019377358048395 56.699824714079085 z"/>
<path fill="#000000" stroke="#000000" d="M4.450418679126289 49.04281377751474 L4.450418679126289 51.86920971660097 L-4.450418679126286 51.86920971660097 L-4.450418679126286 49.04281377751474 z"/>
<path fill="#000000" stroke="#000000" d="M26.497461928934 81.61719102957217 L26.497461928934 84.44358696865847 L28.697967610605534 80.6920127469044 L28.69796761060553 77.8656168078181 z"/>
<path fill="#000000" stroke="#000000" d="M-26.505076142131976 51.56873062090407 L-26.505076142131976 54.39512655999035 L-21.20335360493289 55.952235656564014 L-21.20335360493289 53.12583971747773 z"/>
<path fill="#000000" stroke="#000000" d="M28.697967610605545 77.86561680781809 L28.697967610605538 80.6920127469044 L26.50507614213198 76.93820677334296 L26.50507614213199 74.11181083425664 z"/>
<path fill="#000000" stroke="#000000" d="M21.19258548136152 83.1689122006646 L21.19258548136152 85.99530813975092 L26.49746192893401 84.44358696865847 L26.49746192893401 81.61719102957214 z"/>
<path fill="#000000" stroke="#000000" d="M5.303300858899102 87.82138818814146 L5.303300858899103 90.64778412722775 L7.499999999999997 86.89509306260575 L7.499999999999996 84.06869712351946 z"/>
<path fill="#000000" stroke="#000000" d="M-5.303300858899107 87.82138818814143 L-5.303300858899107 90.64778412722775 L4.592425496802574e-16 92.20219966159051 L4.592425496802574e-16 89.37580372250419 z"/>
<path fill="#000000" stroke="#000000" d="M13.72842832848076 47.83647634926745 L13.728428328480764 50.662872288353746 L15.92131979695432 54.41667826191519 L15.921319796954315 51.5902823228289 z"/>
<path fill="#000000" stroke="#000000" d="M-4.450418679126298 76.63772767764594 L-4.450418679126298 79.46412361673227 L4.450418679126267 79.46412361673227 L4.450418679126267 76.63772767764594 z"/>
<path fill="#000000" stroke="#000000" d="M-13.728428328480751 77.84406510589328 L-13.728428328480746 80.67046104497958 L-15.921319796954304 76.91665507141813 L-15.921319796954307 74.09025913233184 z"/>
<path fill="#000000" stroke="#000000" d="M24.69669914110089 66.59296179220237 L24.69669914110089 69.41935773128864 L29.999999999999996 70.97377326565142 L29.999999999999996 68.14737732656513 z"/>
<path fill="#000000" stroke="#000000" d="M21.233810457724765 42.53318095642089 L21.233810457724765 45.35957689550721 L15.928934010152282 46.91129806659966 L15.928934010152282 44.084902127513345 z"/>
<path fill="#000000" stroke="#000000" d="M5.3033008588990995 45.36453539626329 L5.303300858899102 48.19093133534959 L7.499999999999997 44.43824027072758 L7.499999999999996 41.61184433164129 z"/>
<path fill="#000000" stroke="#000000" d="M26.505076142131976 74.11181083425664 L26.505076142131976 76.93820677334293 L21.20335360493289 75.38109767676927 L21.20335360493289 72.55470173768299 z"/>
<path fill="#000000" stroke="#000000" d="M9.819419485631967 35.401814469317834 L9.819419485631967 38.22821040840419 L41.736481776669294 44.54574276971733 L41.736481776669294 41.71934683063097 z"/>
<path fill="#000000" stroke="#000000" d="M-22.499999999999986 62.84027072758037 L-22.49999999999999 65.66666666666666 L-24.696699141100883 61.91397560204466 L-24.69669914110088 59.08757966295836 z"/>
<path fill="#000000" stroke="#000000" d="M-4.592425496802574e-16 46.918950930626025 L-4.592425496802574e-16 49.74534686971235 L5.303300858899105 48.19093133534958 L5.303300858899105 45.36453539626326 z"/>
<path fill="#000000" stroke="#000000" d="M15.928934010152277 44.084902127513374 L15.928934010152279 46.91129806659967 L13.728428328480746 50.66287228835374 L13.728428328480744 47.83647634926745 z"/>
<path fill="#000000" stroke="#000000" d="M-5.3033008588991155 37.85915326701928 L-5.303300858899114 40.68554920610557 L-7.500000000000007 44.438240270727576 L-7.50000000000001 41.61184433164129 z"/>
<path fill="#000000" stroke="#000000" d="M26.52791878172588 51.5956702483101 L26.527918781725884 54.42206618739639 L28.728424463397403 50.67049196564231 L28.728424463397413 47.844096026556024 z"/>
<path fill="#000000" stroke="#000000" d="M47.66044443118979 44.13952997680354 L47.66044443118978 46.965925915889834 L50.00000000000001 51.51438240270727 L50 48.68798646362098 z"/>
<path fill="#000000" stroke="#000000" d="M-16.06781698611877 36.9197018472321 L-16.06781698611877 39.74609778631842 L-3.3031738188932893 37.458772590498164 L-3.3031738188932893 34.632376651411846 z"/>
<path fill="#000000" stroke="#000000" d="M21.223042334153398 53.14739141940251 L21.223042334153398 55.973787358488835 L26.527918781725884 54.422066187396375 L26.527918781725884 51.59567024831006 z"/>
<path fill="#000000" stroke="#000000" d="M26.535532994923855 44.090290052994554 L26.535532994923855 46.916685992080836 L21.233810457724765 45.359576895507175 L21.233810457724765 42.53318095642089 z"/>
<path fill="#000000" stroke="#000000" d="M22.50000000000001 62.84027072758037 L22.500000000000007 65.66666666666666 L24.696699141100904 69.41935773128867 L24.696699141100904 66.59296179220237 z"/>
<path fill="#000000" stroke="#000000" d="M7.500000000000011 41.61184433164129 L7.500000000000009 44.438240270727576 L5.303300858899115 40.68554920610557 L5.303300858899117 37.85915326701927 z"/>
<path fill="#000000" stroke="#000000" d="M28.728424463397428 47.844096026556024 L28.728424463397417 50.67049196564232 L26.53553299492386 46.91668599208087 L26.53553299492387 44.090290052994575 z"/>
<path fill="#000000" stroke="#000000" d="M41.736481776669294 41.71934683063101 L41.736481776669294 44.54574276971731 L47.66044443118977 46.965925915889805 L47.66044443118977 44.13952997680351 z"/>
<path fill="#000000" stroke="#000000" d="M-5.303300858899106 45.36453539626326 L-5.303300858899106 48.19093133534958 L-4.592425496802574e-16 49.74534686971234 L-4.592425496802574e-16 46.91895093062602 z"/>
<path fill="#000000" stroke="#000000" d="M37.5 62.84027072758037 L37.5 65.66666666666666 L35.30330085889911 61.91397560204466 L35.30330085889911 59.08757966295836 z"/>
<path fill="#000000" stroke="#000000" d="M50 48.68798646362098 L50 51.51438240270728 L50 79.81895093062606 L50 76.99255499153976 z"/>
<path fill="#000000" stroke="#000000" d="M29.999999999999993 68.14737732656509 L29.999999999999993 70.97377326565142 L35.3033008588991 69.41935773128866 L35.3033008588991 66.59296179220233 z"/>
<path fill="#000000" stroke="#000000" d="M24.696699141100886 59.08757966295836 L24.69669914110089 61.91397560204466 L22.499999999999993 65.66666666666666 L22.499999999999993 62.84027072758037 z"/>
<path fill="#000000" stroke="#000000" d="M-18.019377358048363 68.98071674108164 L-18.019377358048377 71.80711268016795 L-12.469796037174667 76.731368053067 L-12.469796037174651 73.90497211398069 z"/>
<path fill="#000000" stroke="#000000" d="M15.898477157360405 74.10642290877546 L15.898477157360395 76.93281884786174 L13.697971475688874 80.68439306961582 L13.697971475688874 77.85799713052953 z"/>
<path fill="#000000" stroke="#000000" d="M35.3033008588991 59.08757966295833 L35.3033008588991 61.91397560204466 L29.999999999999996 60.35956006768189 L29.999999999999996 57.533164128595566 z"/>
<path fill="#000000" stroke="#000000" d="M-3.3031738188933066 91.04816480374879 L-3.3031738188933066 93.87456074283511 L-16.06781698611879 91.58723554701486 L-16.06781698611879 88.76083960792853 z"/>
<path fill="#000000" stroke="#000000" d="M9.819419485631968 90.2787269858428 L9.819419485631968 93.1051229249291 L-3.303173818893306 93.87456074283513 L-3.303173818893306 91.0481648037488 z"/>
<path fill="#000000" stroke="#000000" d="M41.73648177666929 83.96119462452964 L41.73648177666929 86.78759056361592 L9.819419485631968 93.10512292492906 L9.819419485631968 90.27872698584278 z"/>
<path fill="#000000" stroke="#000000" d="M47.660444431189774 81.5410114783572 L47.660444431189774 84.36740741744345 L41.73648177666929 86.78759056361594 L41.73648177666929 83.9611946245297 z"/>
<path fill="#000000" stroke="#000000" d="M35.3033008588991 66.59296179220237 L35.30330085889909 69.41935773128867 L37.499999999999986 65.66666666666666 L37.49999999999998 62.84027072758037 z"/>
<path fill="#000000" stroke="#000000" d="M-26.49746192893402 44.06335042558856 L-26.497461928934015 46.889746364674856 L-28.69796761060555 50.64132058642893 L-28.697967610605534 47.81492464734264 z"/>
<path fill="#000000" stroke="#000000" d="M-35.17895004825956 49.36878512567823 L-35.17895004825958 52.19518106476452 L-27.091262865029645 44.84231881939061 L-27.09126286502966 42.01592288030432 z"/>
<path fill="#000000" stroke="#000000" d="M-27.091262865029638 42.0159228803043 L-27.091262865029638 44.84231881939056 L-16.06781698611877 39.74609778631839 L-16.06781698611877 36.919701847232126 z"/>
<path fill="#000000" stroke="#000000" d="M-3.3031738188932893 34.63237665141187 L-3.3031738188932893 37.45877259049818 L9.819419485631967 38.228210408404195 L9.819419485631967 35.401814469317884 z"/>
<path fill="#000000" stroke="#000000" d="M5.303300858899107 37.859153267019245 L5.303300858899107 40.68554920610557 L-4.592425496802574e-16 39.1311336717428 L-4.592425496802574e-16 36.30473773265648 z"/>
<path fill="#000000" stroke="#000000" d="M-4.592425496802574e-16 36.30473773265649 L-4.592425496802574e-16 39.13113367174277 L-5.303300858899106 40.68554920610553 L-5.303300858899106 37.85915326701926 z"/>
<path fill="#000000" stroke="#000000" d="M49.999999999999986 76.99255499153975 L49.99999999999999 79.81895093062604 L47.66044443118976 84.36740741744349 L47.660444431189774 81.5410114783572 z"/>
<path fill="#000000" stroke="#000000" d="M13.697971475688878 77.85799713052953 L13.69797147568888 80.68439306961581 L15.890862944162436 84.43819904317726 L15.890862944162446 81.61180310409097 z"/>
<path fill="#000000" stroke="#000000" d="M-35.17895004825957 76.31175632948249 L-39.4544521361089 67.49904958750611 L-39.45445213610889 58.181491867654614 L-35.17895004825956 49.36878512567822 L-27.09126286502964 42.015922880304316 L-16.067816986118775 36.91970184723215 L-3.3031738188932898 34.63237665141189 L9.819419485631968 35.401814469317905 L41.7364817766693 41.719346830631046 L47.66044443118978 44.13952997680354 L50 48.68798646362098 L50 76.99255499153975 L47.66044443118978 81.5410114783572 L41.736481776669294 83.9611946245297 L9.81941948563197 90.27872698584282 L-3.303173818893307 91.04816480374885 L-16.067816986118792 88.76083960792857 L-27.091262865029655 83.6646185748564 M13.697971475688878 77.85799713052951 L15.890862944162436 81.61180310409097 L21.192585481361522 83.16891220066464 L26.49746192893401 81.61719102957217 L28.697967610605538 77.86561680781809 L26.505076142131976 74.11181083425664 L21.203353604932893 72.55470173768299 L15.898477157360405 74.10642290877544 z"/>
<path fill="#000000" stroke="#000000" d="M-39.4544521361089 70.3254455265924 L-35.17895004825957 79.13815226856879 L-27.091262865029655 86.4910145139427 L-16.067816986118792 91.58723554701488 L-3.303173818893307 93.87456074283514 L9.81941948563197 93.10512292492913 L41.736481776669294 86.78759056361598 L47.66044443118978 84.36740741744349 L50 79.81895093062606 L50 51.51438240270727 L47.66044443118978 46.965925915889834 L41.7364817766693 44.545742769717336 L9.819419485631968 38.228210408404195 L-3.3031738188932898 37.458772590498185 L-16.067816986118775 39.74609778631844 L-27.09126286502964 44.84231881939061 L-35.17895004825956 52.19518106476452 L-39.45445213610889 61.007887806740904 M21.192585481361522 85.99530813975092 L15.890862944162436 84.43819904317725 L13.697971475688878 80.68439306961581 L15.898477157360405 76.93281884786174 L21.203353604932893 75.38109767676929 L26.505076142131976 76.93820677334296 L28.697967610605538 80.6920127469044 L26.49746192893401 84.44358696865847 z"/>
<path fill="#f5d3b6" stroke="#f5d3b6" d="M28 201.24128755714244 L28 202.05327540951052 L28 190.95107961124563 L28 179.4479394274624 L28 179.44210789682015 L28 151.1521391420969 L28 173.75747512414503 L28 173.76330665478727 L28 175.66737060240652 L28 181.857762271735 L28 193.0942569061718 L28 199.40117831618593 L28 200.14921146189127 z"/>
<path fill="#f5d3b6" stroke="#f5d3b6" d="M31.311351978648016 155.0465008994901 L30.222179246101945 153.76556409054515 L28.004412426261084 151.15732843764727 L28 151.1521391420969 L28 179.44210789682015 L28.55438349939077 178.79011743706883 L31.311351978648013 175.54774613942695 L31.985916847561278 174.1310761705639 L33.69340917199799 170.54513031187923 L33.92182427373307 169.05896909632645 L34.04527707108202 168.25573516836886 L34.5 165.29712351945852 L34.27158489826491 163.81096230390574 L33.69340917199799 160.0491167270378 L33.01884430308472 158.63244675817475 z"/>
<path fill="#f5d3b6" stroke="#f5d3b6" d="M34.5 165.2971235194585 L34.49999999999999 108.06260575296106 L33.693409171997985 102.81459896054037 L33.69340917199799 160.0491167270378 L34.27158489826492 163.81096230390574 z"/>
<path fill="#f5d3b6" stroke="#f5d3b6" d="M33.693409171998 160.0491167270378 L33.69340917199799 102.81459896054037 L31.311351978648023 97.81198313299264 L31.311351978648023 155.0465008994901 L33.01884430308472 158.63244675817475 z"/>
<path fill="#f5d3b6" stroke="#f5d3b6" d="M28.000000000000007 173.75747512414503 L28.000000000000004 151.1521391420969 L28.0044124262611 151.15732843764727 L30.22217924610195 153.76556409054515 L31.311351978648013 155.0465008994901 L31.311351978648023 97.81198313299264 L27.465210766844702 93.28867502640587 L27.46521076684471 173.13436030559367 L27.999999999999996 173.76330665478724 z"/>
<path fill="#f5d3b6" stroke="#f5d3b6" d="M22.334826824973074 169.30186477973595 L27.465210766844706 173.13436030559367 L27.465210766844717 93.28867502640587 L22.33482682497306 89.45617950054817 z"/>
<path fill="#f5d3b6" stroke="#f5d3b6" d="M16.16009120414275 166.3393850658836 L22.334826824973046 169.30186477973595 L22.334826824973046 89.45617950054813 L16.16009120414275 86.49369978669577 z"/>
<path fill="#f5d3b6" stroke="#f5d3b6" d="M9.229727679258108 164.3854434228966 L16.16009120414275 166.3393850658836 L16.16009120414275 86.49369978669576 L9.229727679258108 84.53975814370875 z"/>
<path fill="#f5d3b6" stroke="#f5d3b6" d="M1.8677923461968962 163.53140399035084 L9.229727679258108 164.3854434228966 L9.229727679258108 84.53975814370878 L1.8677923461968962 83.68571871116303 z"/>
<path fill="#f5d3b6" stroke="#f5d3b6" d="M-5.58147888107039 163.81720070291556 L1.8677923461968962 163.53140399035084 L1.8677923461968962 83.68571871116305 L-5.58147888107039 83.97151542372777 z"/>
<path fill="#f5d3b6" stroke="#f5d3b6" d="M-12.76976635922705 165.22947002395142 L-5.58147888107039 163.81720070291556 L-5.58147888107039 83.97151542372772 L-12.76976635922705 85.38378474476359 z"/>
<path fill="#f5d3b6" stroke="#f5d3b6" d="M-25.04684447134807 171.11969708563228 L-19.36095375500224 167.70217580963143 L-19.360953755002207 87.85649053044366 L-25.04684447134803 91.27401180644449 z"/>
<path fill="#f5d3b6" stroke="#f5d3b6" d="M-29.561572577781842 175.32223435539026 L-25.04684447134802 171.11969708563228 L-25.04684447134803 91.27401180644449 L-29.561572577781845 95.47654907620245 z"/>
<path fill="#f5d3b6" stroke="#f5d3b6" d="M-32.6940344058067 180.11328164695615 L-29.561572577781835 175.32223435539024 L-29.561572577781842 95.47654907620245 L-32.694034405806704 100.26759636776835 z"/>
<path fill="#f5d3b6" stroke="#f5d3b6" d="M-34.29775952182541 185.268814913843 L-32.69403440580668 180.11328164695615 L-32.69403440580669 100.26759636776835 L-34.2977595218254 105.42312963465518 z"/>
<path fill="#f5d3b6" stroke="#f5d3b6" d="M-34.297759521825405 190.5477671504548 L-34.297759521825405 185.268814913843 L-34.297759521825405 105.42312963465518 L-34.297759521825405 110.702081871267 z"/>
<path fill="#f5d3b6" stroke="#f5d3b6" d="M-32.69403440580667 195.70330041734164 L-34.2977595218254 190.54776715045477 L-34.29775952182539 110.702081871267 L-32.69403440580666 115.85761513815382 z"/>
<path fill="#f5d3b6" stroke="#f5d3b6" d="M-19.360953755002193 167.70217580963146 L-12.76976635922705 165.22947002395145 L-12.76976635922705 85.3837847447636 L-19.360953755002193 87.85649053044361 z"/>
<path fill="#f5d3b6" stroke="#f5d3b6" d="M-29.561572577781817 200.49434770890753 L-32.694034405806654 195.7033004173416 L-32.69403440580667 115.85761513815382 L-29.56157257778181 120.64866242971972 z"/>
<path fill="#f5d3b6" stroke="#f5d3b6" d="M-25.046844471347974 204.69688497866548 L-29.561572577781806 200.4943477089075 L-29.561572577781796 120.6486624297197 L-25.046844471347995 124.85119969947768 z"/>
<path fill="#f5d3b6" stroke="#f5d3b6" d="M-5.581478881070351 211.99938136138218 L-12.769766359227017 210.5871120403463 L-12.769766359227017 130.7414267611585 L-5.581478881070351 132.15369608219436 z"/>
<path fill="#f5d3b6" stroke="#f5d3b6" d="M-19.360953755002132 208.1144062546663 L-25.04684447134797 204.69688497866548 L-25.046844471347992 124.85119969947769 L-19.360953755002154 128.26872097547852 z"/>
<path fill="#f5d3b6" stroke="#f5d3b6" d="M-12.769766359227017 210.58711204034634 L-19.360953755002164 208.11440625466633 L-19.360953755002164 128.2687209754785 L-12.769766359227017 130.7414267611585 z"/>
<path fill="#f5d3b6" stroke="#f5d3b6" d="M1.867792346196939 212.28517807394687 L-5.581478881070351 211.99938136138218 L-5.581478881070351 132.1536960821944 L1.867792346196939 132.4394927947591 z"/>
<path fill="#f5d3b6" stroke="#f5d3b6" d="M9.229727679258136 211.43113864140113 L1.867792346196939 212.28517807394687 L1.867792346196939 132.43949279475908 L9.229727679258136 131.58545336221334 z"/>
<path fill="#f5d3b6" stroke="#f5d3b6" d="M27.465210766844677 202.6822217587041 L22.33482682497306 206.51471728456178 L22.33482682497306 126.66903200537398 L27.465210766844674 122.83653647951627 z"/>
<path fill="#f5d3b6" stroke="#f5d3b6" d="M27.99999999999998 179.44793942746236 L27.99999999999998 190.95107961124563 L27.99999999999997 202.0532754095105 L27.465210766844695 202.6822217587041 L27.465210766844688 122.83653647951627 L31.311351978648002 118.3132283729295 L31.311351978648013 175.54774613942698 L28.554383499390752 178.7901174370688 L27.999999999999975 179.44210789682015 z"/>
<path fill="#f5d3b6" stroke="#f5d3b6" d="M16.160091204142763 209.47719699841412 L9.229727679258136 211.4311386414011 L9.229727679258136 131.58545336221331 L16.160091204142763 129.6315117192263 z"/>
<path fill="#f5d3b6" stroke="#f5d3b6" d="M22.33482682497306 206.51471728456178 L16.160091204142763 209.47719699841414 L16.160091204142763 129.63151171922632 L22.33482682497306 126.66903200537398 z"/>
<path fill="#f5d3b6" stroke="#f5d3b6" d="M31.311351978648016 175.54774613942695 L31.31135197864801 118.3132283729295 L33.69340917199799 113.31061254538177 L33.69340917199799 170.54513031187923 L31.98591684756127 174.1310761705639 z"/>
<path fill="#f5d3b6" stroke="#f5d3b6" d="M34.49999999999999 165.2971235194585 L34.04527707108202 168.25573516836886 L33.921824273733066 169.05896909632645 L33.693409171997985 170.5451303118792 L33.693409171997985 113.31061254538179 L34.49999999999999 108.06260575296108 z"/>
<path fill="#f5d3b6" stroke="#f5d3b6" d="M33.69340917199799 102.81459896054037 L34.5 108.06260575296106 L33.69340917199799 113.31061254538177 L31.311351978648013 118.3132283729295 L27.465210766844702 122.83653647951628 L22.334826824973064 126.66903200537398 L16.160091204142766 129.63151171922632 L9.229727679258138 131.58545336221334 L1.8677923461969395 132.43949279475908 L-5.5814788810703515 132.1536960821944 L-12.769766359227019 130.7414267611585 L-19.360953755002168 128.26872097547852 L-25.046844471348 124.85119969947768 L-29.561572577781817 120.64866242971972 L-32.694034405806676 115.85761513815382 L-34.297759521825405 110.702081871267 L-34.297759521825405 105.42312963465517 L-32.69403440580669 100.26759636776835 L-29.56157257778183 95.47654907620245 L-25.04684447134802 91.27401180644448 L-19.360953755002196 87.85649053044365 L-12.769766359227052 85.38378474476363 L-5.581478881070391 83.97151542372777 L1.8677923461968964 83.68571871116305 L9.22972767925811 84.5397581437088 L16.160091204142752 86.4936997866958 L22.33482682497305 89.45617950054816 L27.465210766844702 93.28867502640585 L31.311351978648016 97.81198313299265 z"/>
<path fill="#f5d3b6" stroke="#f5d3b6" d="M28 193.09425690617178 L28 181.857762271735 L28 175.6673706024065 L28 173.76330665478724 L27.465210766844702 173.13436030559367 L22.33482682497305 169.30186477973595 L16.160091204142752 166.3393850658836 L9.22972767925811 164.38544342289657 L1.8677923461968964 163.53140399035087 L-5.581478881070391 163.81720070291558 L-12.769766359227052 165.22947002395145 L-19.360953755002196 167.70217580963146 L-25.04684447134802 171.11969708563228 L-29.56157257778183 175.32223435539024 L-32.69403440580669 180.11328164695612 L-34.297759521825405 185.268814913843 L-34.297759521825405 190.5477671504548 L-32.694034405806676 195.7033004173416 L-29.561572577781817 200.49434770890753 L-25.046844471348 204.69688497866548 L-19.360953755002168 208.1144062546663 L-12.769766359227019 210.5871120403463 L-5.5814788810703515 211.9993813613822 L1.8677923461969395 212.2851780739469 L9.229727679258138 211.43113864140113 L16.160091204142766 209.47719699841412 L22.334826824973064 206.51471728456178 L27.465210766844702 202.6822217587041 L28 202.0532754095105 L28 201.2412875571424 L28 200.14921146189124 L28 199.40117831618593 z"/>
<path fill="#ffd600" stroke="#ffd600" d="M16.072704159333767 77.07209871262054 L16.277193314317696 86.33740336665039 L23.333949786823286 79.81850277778878 z"/>
<path fill="#ffd600" stroke="#ffd600" d="M23.33394978682329 79.81850277778878 L16.277193314317696 86.3374033666504 L22.4966733961685 89.32135032480605 z"/>
<path fill="#ffd600" stroke="#ffd600" d="M-25.228343344328803 91.15235532857118 L-19.501250521342786 87.7100694056428 L-38.27430366972642 84.16535979699702 z"/>
<path fill="#ffd600" stroke="#ffd600" d="M-38.27430366972642 84.16535979699702 L-19.501250521342786 87.71006940564278 L-12.86230089806203 85.21944546209554 z"/>
<path fill="#ffd600" stroke="#ffd600" d="M29.69848480983499 83.51454086721996 L22.496673396168497 89.32135032480605 L27.66423403327111 93.18161755737286 z"/>
<path fill="#ffd600" stroke="#ffd600" d="M-12.86230089806203 85.21944546209554 L-5.621924380208581 83.7969423054 L-8.193793524677385 75.38087143973856 z"/>
<path fill="#ffd600" stroke="#ffd600" d="M0 74.80981387478849 L-5.621924380208581 83.79694230539998 L1.8813270733432503 83.50907460216452 z"/>
<path fill="#ffd600" stroke="#ffd600" d="M23.33394978682329 79.81850277778877 L22.496673396168504 89.32135032480605 L29.69848480983499 83.51454086721996 z"/>
<path fill="#ffd600" stroke="#ffd600" d="M-39.797464868072495 123.21675596676049 L-34.54629401111401 110.72120850980546 L-41.999999999999986 104.52961082910325 z"/>
<path fill="#ffd600" stroke="#ffd600" d="M-38.27430366972642 124.8938618612094 L-25.228343344328774 124.972856177351 L-29.775786871823712 120.73986573897164 z"/>
<path fill="#ffd600" stroke="#ffd600" d="M-12.862300898061994 130.90576604382665 L-19.50125052134276 128.41514210027938 L-38.27430366972642 124.8938618612094 z"/>
<path fill="#ffd600" stroke="#ffd600" d="M31.538245833565753 97.7377032589349 L33.937564310925495 102.77656992581268 L38.802940365474036 93.1563369214325 z"/>
<path fill="#ffd600" stroke="#ffd600" d="M-29.775786871823712 120.73986573897164 L-32.930947698602374 115.91410071340889 L-39.79746486807248 123.21675596676047 z"/>
<path fill="#ffd600" stroke="#ffd600" d="M34.921723716706886 121.04104534830712 L31.538245833565757 118.38750824698727 L27.664234033271097 122.94359394854932 z"/>
<path fill="#ffd600" stroke="#ffd600" d="M33.9375643109255 113.34864158010949 L31.53824583356575 118.38750824698727 L38.802940365474036 115.90288473677394 z"/>
<path fill="#ffd600" stroke="#ffd600" d="M-16.07270415933377 77.07209871262056 L-35.71157419136642 83.33719689513869 L-12.86230089806203 85.21944546209555 z"/>
<path fill="#ffd600" stroke="#ffd600" d="M-12.862300898062031 85.21944546209554 L-35.71157419136642 83.33719689513869 L-38.27430366972642 84.16535979699702 z"/>
<path fill="#ffd600" stroke="#ffd600" d="M-39.79746486807248 85.84246569144597 L-32.93094769860238 100.21111079251334 L-29.775786871823723 95.38534576695056 z"/>
<path fill="#ffd600" stroke="#ffd600" d="M-34.546294011113986 105.40400299611673 L-32.93094769860238 100.21111079251332 L-39.79746486807248 85.84246569144597 z"/>
<path fill="#ffd600" stroke="#ffd600" d="M9.296609763890414 84.36930272625044 L16.277193314317696 86.33740336665039 L16.072704159333767 77.07209871262056 z"/>
<path fill="#ffd600" stroke="#ffd600" d="M8.193793524677385 75.38087143973857 L0 74.80981387478849 L1.8813270733432503 83.50907460216452 z"/>
<path fill="#ffd600" stroke="#ffd600" d="M-32.930947698602374 115.91410071340887 L-34.546294011113986 110.72120850980546 L-39.79746486807248 123.21675596676047 z"/>
<path fill="#ffd600" stroke="#ffd600" d="M-39.79746486807248 85.84246569144597 L-29.775786871823723 95.38534576695056 L-38.27430366972642 84.16535979699702 z"/>
<path fill="#ffd600" stroke="#ffd600" d="M-12.862300898061992 130.90576604382662 L-35.71157419136642 125.72202476306774 L-16.07270415933377 131.98712294558587 z"/>
<path fill="#ffd600" stroke="#ffd600" d="M31.538245833565757 97.73770325893489 L38.802940365474036 93.15633692143251 L34.9217237167069 88.0181763098993 z"/>
<path fill="#ffd600" stroke="#ffd600" d="M1.8813270733432939 132.61613690375762 L8.193793524677389 133.67835021846784 L9.296609763890443 131.7559087796717 z"/>
<path fill="#ffd600" stroke="#ffd600" d="M9.296609763890443 131.7559087796717 L8.193793524677389 133.67835021846784 L16.072704159333764 131.98712294558587 z"/>
<path fill="#ffd600" stroke="#ffd600" d="M-38.27430366972642 124.8938618612094 L-29.77578687182371 120.73986573897163 L-39.79746486807248 123.21675596676047 z"/>
<path fill="#ffd600" stroke="#ffd600" d="M16.277193314317714 129.78780813927173 L23.33394978682328 129.24071888041766 L22.49667339616852 126.8038611811161 z"/>
<path fill="#ffd600" stroke="#ffd600" d="M16.07270415933376 131.98712294558587 L23.33394978682328 129.24071888041766 L16.277193314317717 129.78780813927176 z"/>
<path fill="#ffd600" stroke="#ffd600" d="M38.80294036547403 115.90288473677394 L31.538245833565753 118.3875082469873 L34.921723716706886 121.04104534830714 z"/>
<path fill="#ffd600" stroke="#ffd600" d="M27.664234033271107 93.18161755737286 L31.538245833565753 97.73770325893489 L34.921723716706886 88.01817630989932 z"/>
<path fill="#ffd600" stroke="#ffd600" d="M22.496673396168514 126.80386118111612 L23.333949786823283 129.24071888041763 L29.698484809834994 125.54468079098648 z"/>
<path fill="#ffd600" stroke="#ffd600" d="M8.193793524677385 75.38087143973857 L1.8813270733432503 83.5090746021645 L9.296609763890414 84.36930272625045 z"/>
<path fill="#ffd600" stroke="#ffd600" d="M-38.27430366972642 124.8938618612094 L-35.71157419136642 125.72202476306774 L-12.862300898061992 130.90576604382662 z"/>
<path fill="#ffd600" stroke="#ffd600" d="M-39.79746486807249 85.84246569144597 L-42 104.5296108291032 L-34.54629401111399 105.40400299611673 z"/>
<path fill="#ffd600" stroke="#ffd600" d="M38.802940365474036 93.15633692143251 L33.9375643109255 102.77656992581268 L41.192981776935675 98.731566071032 z"/>
<path fill="#ffd600" stroke="#ffd600" d="M-8.193793524677385 75.38087143973856 L-5.621924380208581 83.79694230539998 L0 74.80981387478849 z"/>
<path fill="#ffd600" stroke="#ffd600" d="M9.296609763890414 84.36930272625045 L16.072704159333767 77.07209871262056 L8.193793524677385 75.38087143973857 z"/>
<path fill="#ffd600" stroke="#ffd600" d="M29.69848480983499 125.54468079098648 L34.92172371670689 121.04104534830712 L27.66423403327111 122.94359394854932 z"/>
<path fill="#ffd600" stroke="#ffd600" d="M27.66423403327111 122.94359394854932 L22.496673396168514 126.80386118111612 L29.69848480983499 125.54468079098648 z"/>
<path fill="#ffd600" stroke="#ffd600" d="M-8.1937935246774 133.67835021846784 L-12.862300898061992 130.90576604382662 L-16.07270415933377 131.98712294558587 z"/>
<path fill="#ffd600" stroke="#ffd600" d="M-41.99999999999999 104.5296108291032 L-34.546294011113986 110.72120850980544 L-34.546294011113986 105.40400299611673 z"/>
<path fill="#ffd600" stroke="#ffd600" d="M34.74999999999997 108.06260575296112 L41.192981776935646 110.32765558717448 L41.999999999999986 104.52961082910325 z"/>
<path fill="#ffd600" stroke="#ffd600" d="M-19.501250521342758 128.41514210027938 L-25.228343344328778 124.97285617735099 L-38.27430366972642 124.8938618612094 z"/>
<path fill="#ffd600" stroke="#ffd600" d="M-12.86230089806203 85.21944546209554 L-8.193793524677385 75.38087143973857 L-16.072704159333767 77.07209871262056 z"/>
<path fill="#ffd600" stroke="#ffd600" d="M-5.1435165564188825e-15 134.24940778341792 L1.8813270733432939 132.61613690375762 L-5.621924380208541 132.32826920052216 z"/>
<path fill="#ffd600" stroke="#ffd600" d="M34.92172371670689 88.0181763098993 L29.69848480983499 83.51454086721996 L27.66423403327111 93.18161755737286 z"/>
<path fill="#ffd600" stroke="#ffd600" d="M33.937564310925474 113.3486415801095 L41.19298177693568 110.32765558717448 L34.75 108.06260575296113 z"/>
<path fill="#ffd600" stroke="#ffd600" d="M38.80294036547402 115.90288473677396 L41.19298177693568 110.32765558717445 L33.9375643109255 113.34864158010949 z"/>
<path fill="#ffd600" stroke="#ffd600" d="M23.33394978682329 79.81850277778878 L29.698484809834994 83.51454086721996 L34.9217237167069 88.0181763098993 L38.80294036547404 93.1563369214325 L41.19298177693568 98.73156607103199 L42 104.52961082910319 L41.192981776935675 110.32765558717442 L38.802940365474036 115.90288473677391 L34.9217237167069 121.04104534830711 L29.698484809834994 125.54468079098645 L23.333949786823283 129.24071888041763 L16.072704159333767 131.98712294558587 L8.19379352467739 133.67835021846784 L-5.143516556418883e-15 134.24940778341792 L-8.193793524677401 133.67835021846784 L-16.072704159333774 131.98712294558584 L-35.711574191366424 125.72202476306772 L-38.27430366972643 124.89386186120939 L-39.79746486807249 123.21675596676045 L-42 104.52961082910319 L-39.79746486807249 85.84246569144597 L-38.27430366972643 84.16535979699702 L-35.711574191366424 83.33719689513867 L-16.07270415933377 77.07209871262056 L-8.193793524677387 75.38087143973857 L0 74.80981387478849 L8.193793524677387 75.38087143973857 L16.07270415933377 77.07209871262056 z"/>
<path fill="#ffd600" stroke="#ffd600" d="M-29.775786871823723 95.38534576695058 L-25.2283433443288 91.15235532857118 L-38.27430366972642 84.16535979699702 z"/>
<path fill="#ffd600" stroke="#ffd600" d="M-5.621924380208542 132.32826920052216 L-12.862300898061994 130.90576604382662 L-8.1937935246774 133.67835021846784 z"/>
<path fill="#ffd600" stroke="#ffd600" d="M-5.1435165564188825e-15 134.24940778341792 L-5.621924380208542 132.32826920052216 L-8.1937935246774 133.67835021846784 z"/>
<path fill="#ffd600" stroke="#ffd600" d="M42 104.5296108291032 L41.192981776935675 98.731566071032 L34.74999999999999 108.06260575296108 z"/>
<path fill="#ffd600" stroke="#ffd600" d="M41.19298177693568 98.73156607103199 L33.9375643109255 102.77656992581268 L34.74999999999999 108.06260575296108 z"/>
<path fill="#ffd600" stroke="#ffd600" d="M-5.1435165564188825e-15 134.24940778341792 L8.193793524677389 133.67835021846784 L1.8813270733432939 132.61613690375762 z"/>
<path fill="#ffd600" stroke="#ffd600" d="M-29.775786871823726 95.38534576695058 L-32.93094769860239 100.21111079251332 L-34.54629401111399 105.40400299611673 L-34.54629401111399 110.72120850980544 L-32.93094769860238 115.91410071340883 L-29.775786871823716 120.7398657389716 L-25.22834334432878 124.97285617735099 L-19.501250521342765 128.41514210027935 L-12.862300898061996 130.9057660438266 L-5.621924380208543 132.32826920052216 L1.881327073343294 132.61613690375762 L9.296609763890444 131.7559087796717 L16.277193314317717 129.78780813927173 L22.49667339616852 126.80386118111609 L27.664234033271114 122.94359394854929 L31.538245833565753 118.38750824698725 L33.93756431092551 113.34864158010947 L34.75 108.06260575296108 L33.93756431092551 102.77656992581268 L31.538245833565757 97.7377032589349 L27.664234033271114 93.18161755737285 L22.496673396168504 89.32135032480605 L16.2771933143177 86.33740336665039 L9.296609763890416 84.36930272625045 L1.8813270733432506 83.5090746021645 L-5.621924380208582 83.7969423054 L-12.862300898062031 85.21944546209555 L-19.50125052134279 87.71006940564278 L-25.228343344328806 91.15235532857118 z"/>
<path fill="#ffd600" stroke="#ffd600" d="M9.296609763890443 131.7559087796717 L16.072704159333764 131.98712294558587 L16.277193314317714 129.78780813927176 z"/>
<path fill="#ffd600" stroke="#ffd600" d="M8.193793524677389 94.81540605603128 L8.193793524677389 133.67835021846778 L-5.1435165564188825e-15 134.24940778341787 L-5.1435165564188825e-15 95.38646362098136 z"/>
<path fill="#ffd600" stroke="#ffd600" d="M16.072704159333764 93.1241787831493 L16.072704159333764 131.98712294558584 L8.193793524677389 133.67835021846784 L8.193793524677389 94.81540605603128 z"/>
<path fill="#ffd600" stroke="#ffd600" d="M23.33394978682328 90.3777747179811 L23.33394978682328 129.2407188804176 L16.072704159333764 131.98712294558584 L16.072704159333764 93.12417878314932 z"/>
<path fill="#ffd600" stroke="#ffd600" d="M29.698484809834987 86.6817366285499 L29.69848480983498 125.54468079098646 L23.33394978682327 129.24071888041763 L23.333949786823265 90.3777747179811 z"/>
<path fill="#ffd600" stroke="#ffd600" d="M34.92172371670687 82.17810118587055 L34.92172371670688 121.0410453483071 L29.698484809834966 125.54468079098643 L29.698484809834987 86.68173662854991 z"/>
<path fill="#ffd600" stroke="#ffd600" d="M38.80294036547402 77.03994057433738 L38.80294036547402 115.90288473677393 L34.92172371670687 121.0410453483071 L34.92172371670689 82.17810118587056 z"/>
<path fill="#ffd600" stroke="#ffd600" d="M41.192981776935675 71.46471142473787 L41.19298177693566 110.32765558717442 L38.80294036547403 115.90288473677393 L38.80294036547403 77.03994057433738 z"/>
<path fill="#ffd600" stroke="#ffd600" d="M41.99999999999999 65.66666666666666 L41.99999999999999 104.5296108291032 L41.19298177693567 110.32765558717442 L41.19298177693567 71.46471142473789 z"/>
<path fill="#ffd600" stroke="#ffd600" d="M41.19298177693568 59.86862190859545 L41.19298177693568 98.731566071032 L42 104.5296108291032 L42 65.66666666666666 z"/>
<path fill="#ffd600" stroke="#ffd600" d="M38.80294036547405 54.293392758995964 L38.80294036547404 93.15633692143251 L41.192981776935696 98.731566071032 L41.19298177693568 59.86862190859546 z"/>
<path fill="#ffd600" stroke="#ffd600" d="M34.9217237167069 49.15523214746277 L34.9217237167069 88.0181763098993 L38.802940365474036 93.15633692143251 L38.80294036547406 54.29339275899596 z"/>
<path fill="#ffd600" stroke="#ffd600" d="M29.698484809835016 44.651596704783415 L29.69848480983502 83.51454086721996 L34.9217237167069 88.01817630989932 L34.9217237167069 49.155232147462776 z"/>
<path fill="#ffd600" stroke="#ffd600" d="M23.33394978682329 40.95555861535224 L23.3339497868233 79.81850277778878 L29.698484809835005 83.51454086721996 L29.69848480983501 44.65159670478344 z"/>
<path fill="#ffd600" stroke="#ffd600" d="M16.072704159333767 38.20915455018397 L16.072704159333767 77.0720987126205 L23.333949786823286 79.81850277778872 L23.333949786823286 40.95555861535219 z"/>
<path fill="#ffd600" stroke="#ffd600" d="M8.193793524677385 36.51792727730199 L8.193793524677385 75.38087143973851 L16.072704159333767 77.0720987126205 L16.072704159333767 38.20915455018398 z"/>
<path fill="#ffd600" stroke="#ffd600" d="M0 35.94686971235195 L0 74.80981387478849 L8.193793524677385 75.38087143973857 L8.193793524677385 36.51792727730203 z"/>
<path fill="#ffd600" stroke="#ffd600" d="M-8.193793524677385 36.51792727730203 L-8.193793524677385 75.38087143973857 L0 74.80981387478849 L0 35.94686971235195 z"/>
<path fill="#ffd600" stroke="#ffd600" d="M-16.072704159333767 38.20915455018398 L-16.072704159333767 77.0720987126205 L-8.193793524677385 75.38087143973851 L-8.193793524677385 36.51792727730199 z"/>
<path fill="#ffd600" stroke="#ffd600" d="M-35.71157419136642 44.47425273270209 L-35.71157419136642 83.33719689513863 L-16.072704159333767 77.0720987126205 L-16.072704159333767 38.20915455018396 z"/>
<path fill="#ffd600" stroke="#ffd600" d="M-38.27430366972642 45.302415634560404 L-38.27430366972642 84.16535979699702 L-35.71157419136642 83.33719689513869 L-35.71157419136642 44.47425273270207 z"/>
<path fill="#ffd600" stroke="#ffd600" d="M-39.7974648680725 46.97952152900942 L-39.79746486807249 85.84246569144597 L-38.27430366972643 84.16535979699702 L-38.27430366972644 45.30241563456048 z"/>
<path fill="#ffd600" stroke="#ffd600" d="M-42 65.66666666666666 L-42 104.5296108291032 L-39.79746486807249 85.84246569144597 L-39.79746486807249 46.979521529009425 z"/>
<path fill="#ffd600" stroke="#ffd600" d="M-39.79746486807248 84.3538118043239 L-39.79746486807248 123.21675596676045 L-41.99999999999999 104.5296108291032 L-41.99999999999999 65.66666666666666 z"/>
<path fill="#ffd600" stroke="#ffd600" d="M-38.27430366972641 86.03091769877284 L-38.27430366972642 124.89386186120939 L-39.79746486807248 123.21675596676045 L-39.79746486807247 84.3538118043239 z"/>
<path fill="#ffd600" stroke="#ffd600" d="M-35.71157419136642 86.85908060063117 L-35.71157419136642 125.7220247630677 L-38.27430366972642 124.89386186120936 L-38.27430366972642 86.03091769877284 z"/>
<path fill="#ffd600" stroke="#ffd600" d="M-16.07270415933377 93.12417878314932 L-16.07270415933377 131.98712294558584 L-35.71157419136641 125.72202476306772 L-35.71157419136641 86.85908060063119 z"/>
<path fill="#ffd600" stroke="#ffd600" d="M-8.1937935246774 94.81540605603126 L-8.1937935246774 133.6783502184678 L-16.07270415933377 131.9871229455858 L-16.07270415933377 93.12417878314928 z"/>
<path fill="#ffd600" stroke="#ffd600" d="M-5.1435165564188825e-15 95.38646362098137 L-5.1435165564188825e-15 134.2494077834179 L-8.1937935246774 133.6783502184678 L-8.1937935246774 94.81540605603129 z"/>
<path fill="#ffd600" stroke="#ffd600" d="M8.19379352467739 94.81540605603129 L-5.143516556418883e-15 95.38646362098137 L-8.193793524677401 94.81540605603129 L-16.072704159333774 93.1241787831493 L-35.711574191366424 86.85908060063117 L-38.27430366972643 86.03091769877284 L-39.79746486807249 84.3538118043239 L-42 65.66666666666666 L-39.79746486807249 46.979521529009425 L-38.27430366972643 45.30241563456048 L-35.711574191366424 44.47425273270215 L-16.07270415933377 38.20915455018402 L-8.193793524677387 36.51792727730203 L0 35.94686971235194 L8.193793524677387 36.51792727730203 L16.07270415933377 38.20915455018402 L23.33394978682329 40.95555861535224 L29.698484809834994 44.65159670478342 L34.9217237167069 49.15523214746276 L38.80294036547404 54.293392758995964 L41.19298177693568 59.86862190859546 L42 65.66666666666666 L41.192981776935675 71.46471142473787 L38.802940365474036 77.03994057433738 L34.9217237167069 82.17810118587055 L29.698484809834994 86.6817366285499 L23.333949786823283 90.3777747179811 L16.072704159333767 93.12417878314932 z"/>
<path fill="#ffd600" stroke="#ffd600" d="M8.19379352467739 133.67835021846784 L16.072704159333767 131.98712294558584 L23.333949786823283 129.24071888041763 L29.698484809834994 125.54468079098645 L34.9217237167069 121.0410453483071 L38.802940365474036 115.90288473677391 L41.192981776935675 110.32765558717442 L42 104.5296108291032 L41.19298177693568 98.731566071032 L38.80294036547404 93.1563369214325 L34.9217237167069 88.0181763098993 L29.698484809834994 83.51454086721996 L23.33394978682329 79.81850277778878 L16.07270415933377 77.07209871262056 L8.193793524677387 75.38087143973856 L0 74.80981387478849 L-8.193793524677387 75.38087143973856 L-16.07270415933377 77.07209871262056 L-35.711574191366424 83.33719689513867 L-38.27430366972643 84.16535979699702 L-39.79746486807249 85.84246569144595 L-42 104.5296108291032 L-39.79746486807249 123.21675596676045 L-38.27430366972643 124.89386186120939 L-35.711574191366424 125.72202476306772 L-16.072704159333774 131.98712294558584 L-8.193793524677401 133.67835021846784 L-5.143516556418883e-15 134.24940778341792 z"/>
<path fill="#3c3c3c" stroke="#3c3c3c" d="M9.999999999999998 187.9082910321489 L9.999999999999998 202.04027072758032 L9.135454576426005 204.91839702426898 L9.135454576425996 190.78641732883753 z"/>
<path fill="#3c3c3c" stroke="#3c3c3c" d="M9.135454576426008 185.0301647354602 L9.13545457642601 199.1621444308917 L10 202.04027072758035 L9.999999999999998 187.90829103214887 z"/>
<path fill="#3c3c3c" stroke="#3c3c3c" d="M6.691306063588577 182.6496926224256 L6.691306063588585 196.78167231785707 L9.135454576426003 199.1621444308917 L9.135454576426035 185.0301647354602 z"/>
<path fill="#3c3c3c" stroke="#3c3c3c" d="M3.0901699437494745 181.1784799472989 L3.0901699437494745 195.31045964273036 L6.6913060635885815 196.78167231785704 L6.6913060635885815 182.6496926224256 z"/>
<path fill="#3c3c3c" stroke="#3c3c3c" d="M-8.090169943749482 183.7490390438458 L-8.090169943749475 197.88101873927727 L-5.000000000000021 195.91215188049654 L-5.00000000000003 181.78017218506508 z"/>
<path fill="#3c3c3c" stroke="#3c3c3c" d="M-9.78147600733806 186.4370783570222 L-9.781476007338055 200.56905805245367 L-8.090169943749471 197.88101873927727 L-8.090169943749482 183.7490390438458 z"/>
<path fill="#3c3c3c" stroke="#3c3c3c" d="M-9.781476007338055 189.37950370727555 L-9.781476007338057 203.51148340270703 L-9.781476007338055 200.56905805245367 L-9.781476007338053 186.4370783570222 z"/>
<path fill="#3c3c3c" stroke="#3c3c3c" d="M-8.090169943749464 192.06754302045195 L-8.090169943749475 206.19952271588343 L-9.781476007338052 203.51148340270703 L-9.78147600733804 189.37950370727557 z"/>
<path fill="#3c3c3c" stroke="#3c3c3c" d="M-1.0452846326765333 180.87091274715706 L-1.0452846326765333 195.00289244258852 L3.0901699437494745 195.3104596427303 L3.0901699437494745 181.17847994729885 z"/>
<path fill="#3c3c3c" stroke="#3c3c3c" d="M-4.999999999999997 181.78017218506506 L-4.999999999999997 195.91215188049657 L-1.0452846326765333 195.0028924425886 L-1.0452846326765333 180.87091274715712 z"/>
<path fill="#3c3c3c" stroke="#3c3c3c" d="M9.135454576425989 190.78641732883753 L9.135454576426 204.918397024269 L6.691306063588551 207.29886913730363 L6.6913060635885655 193.16688944187217 z"/>
<path fill="#3c3c3c" stroke="#3c3c3c" d="M3.0901699437494687 194.63810211699877 L3.0901699437494687 208.77008181243033 L-1.0452846326765415 209.0776490125721 L-1.0452846326765415 194.94566931714053 z"/>
<path fill="#3c3c3c" stroke="#3c3c3c" d="M6.691306063588577 193.16688944187214 L6.691306063588577 207.2988691373036 L3.0901699437494687 208.77008181243028 L3.0901699437494687 194.63810211699882 z"/>
<path fill="#3c3c3c" stroke="#3c3c3c" d="M-4.9999999999999964 194.03640987923268 L-5 208.16838957466413 L-8.090169943749444 206.19952271588343 L-8.09016994374944 192.06754302045195 z"/>
<path fill="#3c3c3c" stroke="#3c3c3c" d="M-1.0452846326765415 194.9456693171406 L-1.0452846326765415 209.07764901257204 L-5.000000000000007 208.16838957466408 L-5.000000000000007 194.03640987923268 z"/>
<path fill="#3c3c3c" stroke="#3c3c3c" d="M10 187.9082910321489 L9.135454576426005 190.78641732883753 L6.691306063588579 193.16688944187217 L3.090169943749469 194.63810211699885 L-1.0452846326765417 194.94566931714064 L-5.000000000000008 194.03640987923265 L-8.090169943749476 192.06754302045195 L-9.781476007338057 189.37950370727557 L-9.781476007338055 186.4370783570222 L-8.090169943749473 183.7490390438458 L-4.999999999999998 181.78017218506508 L-1.0452846326765335 180.87091274715712 L3.090169943749475 181.1784799472989 L6.691306063588582 182.6496926224256 L9.135454576426008 185.0301647354602 z"/>
<path fill="#3c3c3c" stroke="#3c3c3c" d="M10 202.04027072758035 L9.135454576426008 199.1621444308917 L6.691306063588582 196.78167231785707 L3.090169943749475 195.31045964273036 L-1.0452846326765335 195.0028924425886 L-4.999999999999998 195.91215188049657 L-8.090169943749473 197.88101873927727 L-9.781476007338055 200.56905805245367 L-9.781476007338057 203.51148340270703 L-8.090169943749476 206.19952271588343 L-5.000000000000008 208.16838957466413 L-1.0452846326765417 209.0776490125721 L3.090169943749469 208.77008181243033 L6.691306063588579 207.29886913730365 L9.135454576426005 204.918397024269 z"/>
</svg>